<?xml version="1.0" encoding="UTF-8" standalone="no"?>
<!-- Created with Inkscape (http://www.inkscape.org/) -->

<svg
   xmlns:dc="http://purl.org/dc/elements/1.1/"
   xmlns:cc="http://creativecommons.org/ns#"
   xmlns:rdf="http://www.w3.org/1999/02/22-rdf-syntax-ns#"
   xmlns:svg="http://www.w3.org/2000/svg"
   xmlns="http://www.w3.org/2000/svg"
   xmlns:xlink="http://www.w3.org/1999/xlink"
   xmlns:sodipodi="http://sodipodi.sourceforge.net/DTD/sodipodi-0.dtd"
   xmlns:inkscape="http://www.inkscape.org/namespaces/inkscape"
   width="128"
   height="128"
   id="svg2"
   sodipodi:version="0.32"
   inkscape:version="0.91 r13725"
   sodipodi:docname="twitter_bird_flower_pitr_Chicken_icon.svg"
   inkscape:output_extension="org.inkscape.output.svg.inkscape"
   version="1.0"
   inkscape:export-filename="C:\joanna\Gfx\drawings_vector\pitr_icons\pitr_injection.png"
   inkscape:export-xdpi="90"
   inkscape:export-ydpi="90">
  <defs
     id="defs4">
    <inkscape:perspective
       sodipodi:type="inkscape:persp3d"
       inkscape:vp_x="0 : 526.18109 : 1"
       inkscape:vp_y="0 : 1000 : 0"
       inkscape:vp_z="744.09448 : 526.18109 : 1"
       inkscape:persp3d-origin="372.04724 : 350.78739 : 1"
       id="perspective32" />
    <linearGradient
       id="linearGradient3274">
      <stop
         style="stop-color: rgb(255, 0, 0); stop-opacity: 1;"
         offset="0"
         id="stop3276" />
      <stop
         style="stop-color: rgb(255, 98, 98); stop-opacity: 1;"
         offset="1"
         id="stop3278" />
    </linearGradient>
    <linearGradient
       id="linearGradient3169">
      <stop
         style="stop-color: rgb(212, 212, 212); stop-opacity: 1;"
         offset="0"
         id="stop3171" />
      <stop
         style="stop-color: rgb(159, 150, 150); stop-opacity: 1;"
         offset="1"
         id="stop3173" />
    </linearGradient>
    <linearGradient
       id="linearGradient3161">
      <stop
         style="stop-color: rgb(0, 190, 255); stop-opacity: 1;"
         offset="0"
         id="stop3163" />
      <stop
         style="stop-color: rgb(0, 116, 255); stop-opacity: 1;"
         offset="1"
         id="stop3165" />
    </linearGradient>
    <linearGradient
       inkscape:collect="always"
       xlink:href="#linearGradient3169"
       id="linearGradient3218"
       gradientUnits="userSpaceOnUse"
       gradientTransform="matrix(1.17318,0,0,1.22714,-28.2282,-58.9006)"
       x1="-133.21428"
       y1="544.86218"
       x2="393.21429"
       y2="602.7193" />
    <linearGradient
       inkscape:collect="always"
       xlink:href="#linearGradient3169"
       id="linearGradient3220"
       gradientUnits="userSpaceOnUse"
       x1="-133.21428"
       y1="180.93361"
       x2="393.21429"
       y2="537.005" />
    <linearGradient
       inkscape:collect="always"
       xlink:href="#linearGradient3161"
       id="linearGradient3222"
       gradientUnits="userSpaceOnUse"
       x1="-60.221073"
       y1="215.21931"
       x2="320.22107"
       y2="501.29077" />
  </defs>
  <sodipodi:namedview
     id="base"
     pagecolor="#ffffff"
     bordercolor="#666666"
     borderopacity="1.0"
     gridtolerance="10000"
     guidetolerance="2"
     objecttolerance="10000"
     inkscape:pageopacity="0.0"
     inkscape:pageshadow="2"
     inkscape:zoom="5.09"
     inkscape:cx="67.456131"
     inkscape:cy="56.04147"
     inkscape:document-units="px"
     inkscape:current-layer="layer2"
     showborder="true"
     inkscape:window-width="1380"
     inkscape:window-height="948"
     inkscape:window-x="17"
     inkscape:window-y="10"
     showgrid="true"
     inkscape:snap-global="false"
     showguides="true"
     inkscape:guide-bbox="true"
     inkscape:window-maximized="0">
    <inkscape:grid
       type="xygrid"
       id="grid2403"
       visible="true"
       enabled="true"
       empspacing="4" />
    <sodipodi:guide
       orientation="1,0"
       position="62.5,73.469388"
       id="guide3187" />
  </sodipodi:namedview>
  <metadata
     id="metadata7">
    <rdf:RDF>
      <cc:Work
         rdf:about="">
        <dc:format>image/svg+xml</dc:format>
        <dc:type
           rdf:resource="http://purl.org/dc/dcmitype/StillImage" />
      </cc:Work>
    </rdf:RDF>
  </metadata>
  <g
     inkscape:groupmode="layer"
     id="layer2"
     inkscape:label="bg"
     style="display:inline">
    <path
       style="fill:none;fill-opacity:1;fill-rule:evenodd;stroke:#000000;stroke-width:1.4;stroke-linecap:round;stroke-linejoin:round;stroke-miterlimit:4;stroke-dasharray:none;stroke-opacity:1"
       d="M 88.65625 11.125 C 81.481003 11.125 75.185441 14.912968 71.65625 20.59375 C 70.998639 20.40368 70.3296 20.218907 69.65625 20.0625 C 69.604194 20.050487 69.552144 20.043055 69.5 20.03125 C 69.198539 19.963003 68.898124 19.905009 68.59375 19.84375 C 67.838675 19.690555 67.084559 19.547207 66.3125 19.4375 C 66.260403 19.430194 66.208421 19.413355 66.15625 19.40625 C 64.365309 19.159118 62.523033 19.03125 60.65625 19.03125 C 60.044455 19.03125 59.448026 19.066536 58.84375 19.09375 C 58.833344 19.094219 58.822904 19.093273 58.8125 19.09375 C 58.204892 19.121586 57.599274 19.164063 57 19.21875 C 55.782977 19.32981 54.584409 19.501121 53.40625 19.71875 C 52.836604 19.823975 52.278267 19.933331 51.71875 20.0625 C 51.698961 20.067068 51.676026 20.057902 51.65625 20.0625 C 51.582353 20.079632 51.511214 20.107457 51.4375 20.125 C 50.957329 20.239607 50.47211 20.336911 50 20.46875 C 49.978237 20.474808 49.959246 20.493906 49.9375 20.5 C 48.854187 20.804608 47.786924 21.170615 46.75 21.5625 C 46.393613 21.696924 46.037994 21.824418 45.6875 21.96875 C 45.490684 22.049896 45.288655 22.134524 45.09375 22.21875 C 45.072463 22.227942 45.052514 22.240771 45.03125 22.25 C 45.009599 22.259405 44.990377 22.271808 44.96875 22.28125 C 44.234644 22.601463 43.517923 22.949734 42.8125 23.3125 C 42.174186 23.640755 41.550712 23.982104 40.9375 24.34375 C 40.82568 24.409781 40.704707 24.464136 40.59375 24.53125 L 25.34375 17.4375 L 28.875 36.1875 C 28.533928 36.758029 28.209841 37.34718 27.90625 37.9375 C 27.599433 38.534093 27.329564 39.134513 27.0625 39.75 C 26.797642 40.360404 26.536808 40.966062 26.3125 41.59375 C 26.096892 42.197091 25.895584 42.819364 25.71875 43.4375 C 25.713267 43.456738 25.724195 43.480748 25.71875 43.5 C 25.536171 44.143193 25.35795 44.779618 25.21875 45.4375 C 25.212439 45.467312 25.22497 45.50141 25.21875 45.53125 C 25.085172 46.172478 24.966037 46.81486 24.875 47.46875 C 24.781667 48.139133 24.703451 48.817578 24.65625 49.5 C 24.609405 50.17727 24.5625 50.874635 24.5625 51.5625 C 24.5625 52.686376 24.657234 53.780132 24.78125 54.875 C 24.843197 55.4219 24.90826 55.961374 25 56.5 C 25.088941 57.022188 25.196267 57.548728 25.3125 58.0625 C 25.324188 58.114448 25.331788 58.166892 25.34375 58.21875 C 25.421757 58.555094 25.504285 58.886277 25.59375 59.21875 C 25.775673 59.897807 25.99032 60.557062 26.21875 61.21875 C 26.44325 61.869054 26.700922 62.524157 26.96875 63.15625 C 27.089545 63.440487 27.214427 63.719638 27.34375 64 C 27.37694 64.072156 27.403751 64.146857 27.4375 64.21875 C 27.667524 64.707357 27.900856 65.180151 28.15625 65.65625 C 28.509458 66.31673 28.880953 66.959004 29.28125 67.59375 C 29.353641 67.708302 29.426117 67.823819 29.5 67.9375 C 29.895968 68.547804 30.312067 69.134632 30.75 69.71875 C 30.758684 69.730334 30.772549 69.738427 30.78125 69.75 C 31.198032 70.304357 31.640776 70.845781 32.09375 71.375 C 32.328979 71.649898 32.567866 71.919657 32.8125 72.1875 C 33.189331 72.600059 33.570204 73.011087 33.96875 73.40625 C 33.973865 73.411322 33.994881 73.401181 34 73.40625 C 34.005103 73.411303 33.994894 73.43245 34 73.4375 C 34.031289 73.468445 34.062331 73.500414 34.09375 73.53125 C 34.540631 73.969777 34.996056 74.396667 35.46875 74.8125 C 35.662399 74.982981 35.864668 75.145945 36.0625 75.3125 C 36.471162 75.656319 36.886434 75.985908 37.3125 76.3125 C 37.449073 76.417187 37.580435 76.522125 37.71875 76.625 C 38.007065 76.839966 38.298035 77.043051 38.59375 77.25 C 38.857867 77.434513 39.136367 77.603269 39.40625 77.78125 C 39.676683 77.959819 39.942699 78.140627 40.21875 78.3125 C 40.791289 78.668461 41.372921 79.017441 41.96875 79.34375 C 42.46193 79.614431 42.960502 79.875416 43.46875 80.125 C 43.983911 80.377979 44.501386 80.613147 45.03125 80.84375 C 45.584466 81.084516 46.11913 81.346911 46.6875 81.5625 C 46.612356 81.749525 46.55832 81.95465 46.5625 82.15625 C 46.5625 93.314548 46.53463 98.929756 46.5 101.75 C 46.49079 102.49979 46.47306 102.65688 46.46875 103.0625 L 37.0625 98.625 C 36.79331 98.485718 36.48825 98.43125 36.1875 98.46875 C 35.53328 98.568218 35.031081 99.09491 34.9375 99.75 C 34.84392 100.4051 35.181041 101.03383 35.78125 101.3125 L 46.59375 106.40625 L 49.9375 117.21875 C 50.18775 118.01266 51.018591 118.43776 51.8125 118.1875 C 52.60641 117.93725 53.06275 117.10641 52.8125 116.3125 L 50.3125 108.15625 L 64 114.59375 C 64.750757 114.94756 65.646191 114.62576 66 113.875 C 66.353807 113.12424 66.03201 112.22881 65.28125 111.875 L 52.59375 105.90625 L 61.5625 104.125 C 62.3823 103.99556 62.94194 103.22605 62.8125 102.40625 C 62.68306 101.58645 61.91355 101.02681 61.09375 101.15625 C 61.05165 101.16487 61.009951 101.1753 60.96875 101.1875 L 49.46875 103.5 C 49.48354 103.06563 49.48814 102.74679 49.5 101.78125 C 49.534466 98.974608 49.561782 93.37123 49.5625 82.5 C 49.684669 82.535612 49.814782 82.559304 49.9375 82.59375 C 50.696783 82.806637 51.47014 82.988214 52.25 83.15625 C 53.148608 83.349873 54.04545 83.524544 54.96875 83.65625 C 55.03155 83.665208 55.093343 83.678834 55.15625 83.6875 C 56.481342 83.870032 57.85039 83.982499 59.21875 84.03125 C 59.698018 84.048089 60.172178 84.0625 60.65625 84.0625 C 62.556669 84.0625 64.428373 83.91168 66.25 83.65625 C 67.12798 83.533139 67.987799 83.397857 68.84375 83.21875 C 68.886321 83.209842 68.926237 83.196544 68.96875 83.1875 C 69.203055 83.138146 69.423701 83.084787 69.65625 83.03125 C 70.232577 82.897637 70.81014 82.752041 71.375 82.59375 C 71.436305 82.576552 71.501331 82.579994 71.5625 82.5625 C 71.552303 88.386515 71.555885 92.68132 71.53125 94.6875 C 71.522258 95.419318 71.512331 95.5659 71.5 95.96875 L 62.09375 91.5625 C 61.861491 91.446381 61.60306 91.392544 61.34375 91.40625 C 60.64569 91.436824 60.06446 91.937903 59.9375 92.625 C 59.810541 93.312088 60.17147 94.00323 60.8125 94.28125 L 71.625 99.375 L 74.96875 110.15625 C 75.066907 110.73028 75.500951 111.18946 76.0625 111.34375 C 76.624047 111.49804 77.21607 111.31828 77.59375 110.875 C 77.971427 110.43171 78.054011 109.81117 77.8125 109.28125 L 75.28125 101.0625 L 89.03125 107.53125 C 89.523478 107.8026 90.12732 107.78238 90.59375 107.46875 C 91.060178 107.15512 91.31558 106.58948 91.25 106.03125 C 91.184428 105.47302 90.80767 105.0095 90.28125 104.8125 L 77.625 98.875 L 86.59375 97.0625 C 87.354868 96.905298 87.87064 96.17828 87.78125 95.40625 C 87.691858 94.634218 87.0269 94.07286 86.25 94.09375 C 86.165938 94.097138 86.082311 94.10759 86 94.125 L 74.5 96.4375 C 74.514637 96.003548 74.51961 95.698 74.53125 94.75 C 74.557444 92.616682 74.55311 87.994146 74.5625 81.5625 C 74.606004 81.546076 74.644083 81.516573 74.6875 81.5 C 75.227148 81.294395 75.755349 81.07199 76.28125 80.84375 C 76.765996 80.633111 77.246334 80.416838 77.71875 80.1875 C 78.636761 79.741844 79.538096 79.263294 80.40625 78.75 C 80.544949 78.668103 80.675135 78.583562 80.8125 78.5 C 81.232117 78.244558 81.655688 77.989454 82.0625 77.71875 C 82.318404 77.548465 82.561826 77.363677 82.8125 77.1875 C 83.176009 76.932356 83.522791 76.673472 83.875 76.40625 C 84.421685 75.991478 84.950473 75.567812 85.46875 75.125 C 85.697859 74.929251 85.932895 74.732296 86.15625 74.53125 C 86.479646 74.239785 86.814006 73.958552 87.125 73.65625 C 87.187757 73.595357 87.250256 73.530075 87.3125 73.46875 C 87.845866 72.942255 88.34924 72.36981 88.84375 71.8125 C 88.947465 71.695705 89.054294 71.586852 89.15625 71.46875 C 89.292958 71.31029 89.428996 71.160779 89.5625 71 C 89.890622 70.605167 90.222916 70.189666 90.53125 69.78125 C 90.548669 69.758107 90.576395 69.741935 90.59375 69.71875 C 91.024663 69.144806 91.422118 68.56799 91.8125 67.96875 C 91.854241 67.904677 91.896234 67.845602 91.9375 67.78125 C 92.089247 67.544357 92.229746 67.30311 92.375 67.0625 C 92.645738 66.614106 92.908622 66.14832 93.15625 65.6875 C 93.162815 65.675268 93.180951 65.66849 93.1875 65.65625 C 93.564739 64.951932 93.897533 64.231411 94.21875 63.5 C 94.540198 62.768061 94.830908 62.006826 95.09375 61.25 C 95.36258 60.47593 95.607628 59.703978 95.8125 58.90625 C 95.913533 58.512849 96.008758 58.117469 96.09375 57.71875 C 96.263716 56.921396 96.396113 56.098141 96.5 55.28125 C 96.551948 54.872771 96.590057 54.475432 96.625 54.0625 C 96.648679 53.783164 96.671715 53.500009 96.6875 53.21875 C 96.69489 53.085187 96.713159 52.946482 96.71875 52.8125 C 96.724503 52.676639 96.714855 52.542532 96.71875 52.40625 C 96.726604 52.127542 96.75 51.842907 96.75 51.5625 C 96.75 50.861483 96.70489 50.158842 96.65625 49.46875 C 97.807278 48.965283 98.911503 48.358035 99.9375 47.65625 L 106.875 50.875 L 105.25 42.25 C 107.38353 39.069161 108.65625 35.240158 108.65625 31.125 C 108.65625 20.084999 99.696247 11.125001 88.65625 11.125 z "
       id="path3524" />
    <path
       style="fill:#c87137;fill-opacity:1;fill-rule:evenodd;stroke:none;stroke-width:3;stroke-linecap:round;stroke-linejoin:miter;stroke-miterlimit:4;stroke-dasharray:none;stroke-opacity:1"
       d="M 48.077557,80.611456 C 47.674267,80.61141 47.297267,80.760865 47.015057,81.048956 C 46.732847,81.337044 46.569197,81.739507 46.577557,82.142706 C 46.577557,93.301006 46.549687,98.916216 46.515057,101.73646 C 46.505847,102.48625 46.488117,102.64334 46.483807,103.04896 L 37.077557,98.611456 C 36.808367,98.472176 36.503307,98.417706 36.202557,98.455206 C 35.548337,98.554676 35.046138,99.081366 34.952557,99.736456 C 34.858977,100.39156 35.196098,101.02029 35.796307,101.29896 L 46.608807,106.39271 L 49.952557,117.20521 C 50.202807,117.99912 51.033648,118.42422 51.827557,118.17396 C 52.621467,117.92371 53.077807,117.09287 52.827557,116.29896 L 50.327557,108.14271 L 64.015057,114.58021 C 64.765817,114.93402 65.661248,114.61222 66.015057,113.86146 C 66.368867,113.1107 66.047067,112.21527 65.296307,111.86146 L 52.608807,105.89271 L 61.577557,104.11146 C 62.397357,103.98202 62.956997,103.21251 62.827557,102.39271 C 62.698117,101.57291 61.928607,101.01327 61.108807,101.14271 C 61.066707,101.15133 61.025008,101.16176 60.983807,101.17396 L 49.483807,103.48646 C 49.498597,103.05209 49.503197,102.73325 49.515057,101.76771 C 49.549988,98.923276 49.577557,93.307236 49.577557,82.142706 C 49.585918,81.739507 49.422267,81.337047 49.140057,81.048956 C 48.857847,80.760862 48.480847,80.61141 48.077557,80.611456 z"
       id="path3492" />
    <path
       style="fill:#c87137;fill-opacity:1;fill-rule:evenodd;stroke:none;stroke-width:3;stroke-linecap:round;stroke-linejoin:miter;stroke-miterlimit:4;stroke-dasharray:none;stroke-opacity:1"
       d="M 72.921307,73.580206 C 72.166877,73.6753 71.602918,74.319825 71.608807,75.080206 C 71.608807,86.238501 71.580938,91.853717 71.546307,94.673956 C 71.537318,95.405776 71.527388,95.552356 71.515057,95.955206 L 62.108807,91.548956 C 61.876548,91.432839 61.618117,91.379 61.358807,91.392706 C 60.660747,91.423282 60.079517,91.924359 59.952557,92.611456 C 59.825598,93.298546 60.186527,93.989686 60.827557,94.267706 L 71.640057,99.361456 L 74.983807,110.14271 C 75.081967,110.71674 75.516008,111.17592 76.077557,111.33021 C 76.639107,111.4845 77.231127,111.30474 77.608807,110.86146 C 77.986487,110.41817 78.069068,109.79763 77.827557,109.26771 L 75.296307,101.04896 L 89.046307,107.51771 C 89.538538,107.78906 90.142377,107.76884 90.608807,107.45521 C 91.075238,107.14158 91.330637,106.57594 91.265057,106.01771 C 91.199488,105.45948 90.822727,104.99596 90.296307,104.79896 L 77.640057,98.861456 L 86.608807,97.048956 C 87.369928,96.891756 87.885697,96.164736 87.796307,95.392706 C 87.706918,94.620676 87.041957,94.059316 86.265057,94.080206 C 86.180998,94.083596 86.097368,94.094046 86.015057,94.111456 L 74.515057,96.423956 C 74.529697,95.990006 74.534667,95.684456 74.546307,94.736456 C 74.581238,91.892029 74.608807,86.244732 74.608807,75.080206 C 74.612147,74.647673 74.432097,74.242574 74.108807,73.955206 C 73.785528,73.66784 73.350467,73.526174 72.921307,73.580206 z"
       id="path3476" />
    <path
       style="fill:#ffa500;fill-opacity:1;fill-rule:nonzero;stroke:#000000;stroke-width:6.9;stroke-linecap:round;stroke-linejoin:round;marker:none;marker-start:none;marker-mid:none;marker-end:none;stroke-miterlimit:4;stroke-dashoffset:0;stroke-opacity:1;visibility:visible;display:inline;overflow:visible;enable-background:accumulate;stroke-dasharray:none"
       d="M 25.34375 17.4375 L 28.875 36.1875 C 26.14208 40.765506 24.59375 46.003037 24.59375 51.5625 C 24.59375 69.50854 40.743901 84.062498 60.65625 84.0625 C 80.5686 84.0625 96.750003 69.508541 96.75 51.5625 C 96.75 33.616461 80.568601 19.03125 60.65625 19.03125 C 53.230419 19.03125 46.33249 21.060097 40.59375 24.53125 L 25.34375 17.4375 z "
       id="path3478" />
    <path
       id="path3480"
       d="M 108.66441,31.112382 C 108.66441,42.152383 99.704408,51.112384 88.664407,51.112384 C 77.624408,51.112384 68.664407,42.152383 68.664407,31.112382 C 68.664407,20.072381 77.624408,11.11238 88.664407,11.11238 C 99.704408,11.11238 108.66441,20.072381 108.66441,31.112382 z"
       style="fill:#a2ff00;fill-opacity:1;fill-rule:nonzero;stroke:#000000;stroke-width:2.2;stroke-linecap:round;stroke-linejoin:round;marker:none;marker-start:none;marker-mid:none;marker-end:none;stroke-miterlimit:4;stroke-dashoffset:0;stroke-opacity:1;visibility:visible;display:inline;overflow:visible;enable-background:accumulate;stroke-dasharray:none" />
    <g
       id="g3518"
       transform="translate(2.0150575,-7.3885443)">
      <path
         transform="translate(10.649351,-9.4990724)"
         d="m 76,48 a 4,4 0 0 1 -4,4 4,4 0 0 1 -4,-4 4,4 0 0 1 4,-4 4,4 0 0 1 4,4 z"
         sodipodi:ry="4"
         sodipodi:rx="4"
         sodipodi:cy="48"
         sodipodi:cx="72"
         id="path3183"
         style="fill:#000000;fill-opacity:1;fill-rule:nonzero;stroke:none;stroke-width:3;stroke-linecap:round;stroke-linejoin:round;marker:none;marker-start:none;marker-mid:none;marker-end:none;stroke-miterlimit:4;stroke-dasharray:none;stroke-dashoffset:0;stroke-opacity:1;visibility:visible;display:inline;overflow:visible;enable-background:accumulate"
         sodipodi:type="arc" />
      <path
         sodipodi:type="arc"
         style="fill:#ffffff;fill-opacity:1;fill-rule:nonzero;stroke:none;stroke-width:3;stroke-linecap:round;stroke-linejoin:round;marker:none;marker-start:none;marker-mid:none;marker-end:none;stroke-miterlimit:4;stroke-dasharray:none;stroke-dashoffset:0;stroke-opacity:1;visibility:visible;display:inline;overflow:visible;enable-background:accumulate"
         id="path3185"
         sodipodi:cx="72"
         sodipodi:cy="48"
         sodipodi:rx="4"
         sodipodi:ry="4"
         d="m 76,48 a 4,4 0 0 1 -4,4 4,4 0 0 1 -4,-4 4,4 0 0 1 4,-4 4,4 0 0 1 4,4 z"
         transform="matrix(0.3961039,0,0,0.3961039,55.120594,18.83488)" />
      <path
         sodipodi:type="arc"
         style="fill:#000000;fill-opacity:1;fill-rule:nonzero;stroke:none;stroke-width:3;stroke-linecap:round;stroke-linejoin:round;marker:none;marker-start:none;marker-mid:none;marker-end:none;stroke-miterlimit:4;stroke-dasharray:none;stroke-dashoffset:0;stroke-opacity:1;visibility:visible;display:inline;overflow:visible;enable-background:accumulate"
         id="path3195"
         sodipodi:cx="72"
         sodipodi:cy="48"
         sodipodi:rx="4"
         sodipodi:ry="4"
         d="m 76,48 a 4,4 0 0 1 -4,4 4,4 0 0 1 -4,-4 4,4 0 0 1 4,-4 4,4 0 0 1 4,4 z"
         transform="translate(25.61039,-16.267161)" />
      <path
         transform="matrix(0.3961039,0,0,0.3961039,70.081633,12.066791)"
         d="m 76,48 a 4,4 0 0 1 -4,4 4,4 0 0 1 -4,-4 4,4 0 0 1 4,-4 4,4 0 0 1 4,4 z"
         sodipodi:ry="4"
         sodipodi:rx="4"
         sodipodi:cy="48"
         sodipodi:cx="72"
         id="path3197"
         style="fill:#ffffff;fill-opacity:1;fill-rule:nonzero;stroke:none;stroke-width:3;stroke-linecap:round;stroke-linejoin:round;marker:none;marker-start:none;marker-mid:none;marker-end:none;stroke-miterlimit:4;stroke-dasharray:none;stroke-dashoffset:0;stroke-opacity:1;visibility:visible;display:inline;overflow:visible;enable-background:accumulate"
         sodipodi:type="arc" />
    </g>
    <path
       style="fill:#ffe000;fill-rule:evenodd;stroke:#000000;stroke-width:3;stroke-linecap:round;stroke-linejoin:round;stroke-miterlimit:4;stroke-dasharray:none;stroke-opacity:1;fill-opacity:1"
       d="M 91.477027,43.706076 L 106.88333,50.874907 L 103.95198,35.231123 C 97.814687,32.18103 91.002067,36.89346 91.477027,43.706076 z"
       id="path3454"
       sodipodi:nodetypes="cccc" />
  </g>
  <g
     inkscape:label="Layer 1"
     inkscape:groupmode="layer"
     id="layer1"
     transform="translate(183.219,-198.691)" />
</svg>
