<?xml version="1.0" encoding="UTF-8" standalone="no"?>
<!-- Generated by IcoMoon.io -->

<svg
   xmlns:dc="http://purl.org/dc/elements/1.1/"
   xmlns:cc="http://creativecommons.org/ns#"
   xmlns:rdf="http://www.w3.org/1999/02/22-rdf-syntax-ns#"
   xmlns:svg="http://www.w3.org/2000/svg"
   xmlns="http://www.w3.org/2000/svg"
   xmlns:xlink="http://www.w3.org/1999/xlink"
   xmlns:sodipodi="http://sodipodi.sourceforge.net/DTD/sodipodi-0.dtd"
   xmlns:inkscape="http://www.inkscape.org/namespaces/inkscape"
   version="1.1"
   width="32"
   height="32"
   viewBox="0 0 32 32"
   id="svg2"
   inkscape:version="0.48.5 r10040"
   sodipodi:docname="configured.svg">
  <metadata
     id="metadata10">
    <rdf:RDF>
      <cc:Work
         rdf:about="">
        <dc:format>image/svg+xml</dc:format>
        <dc:type
           rdf:resource="http://purl.org/dc/dcmitype/StillImage" />
      </cc:Work>
    </rdf:RDF>
  </metadata>
  <defs
     id="defs8">
    <linearGradient
       id="linearGradient3759">
      <stop
         style="stop-color:#ff6600;stop-opacity:1;"
         offset="0"
         id="stop3761" />
      <stop
         style="stop-color:#ffffff;stop-opacity:1;"
         offset="1"
         id="stop3763" />
    </linearGradient>
    <linearGradient
       inkscape:collect="always"
       xlink:href="#linearGradient3759"
       id="linearGradient3765"
       x1="14.903234"
       y1="4.3802299"
       x2="14.894068"
       y2="8.0677967"
       gradientUnits="userSpaceOnUse" />
    <linearGradient
       inkscape:collect="always"
       xlink:href="#linearGradient3759"
       id="linearGradient3772"
       gradientUnits="userSpaceOnUse"
       x1="14.903234"
       y1="4.3802299"
       x2="14.894068"
       y2="8.0677967" />
    <linearGradient
       inkscape:collect="always"
       xlink:href="#linearGradient3759"
       id="linearGradient3776"
       gradientUnits="userSpaceOnUse"
       x1="14.903234"
       y1="4.3802299"
       x2="14.894068"
       y2="8.0677967" />
    <linearGradient
       inkscape:collect="always"
       xlink:href="#linearGradient3759"
       id="linearGradient2995"
       gradientUnits="userSpaceOnUse"
       x1="14.903234"
       y1="4.3802299"
       x2="14.894068"
       y2="8.0677967" />
    <linearGradient
       inkscape:collect="always"
       xlink:href="#linearGradient3759"
       id="linearGradient2999"
       gradientUnits="userSpaceOnUse"
       x1="14.903234"
       y1="4.3802299"
       x2="14.894068"
       y2="8.0677967"
       gradientTransform="translate(0,0.88499066)" />
    <linearGradient
       inkscape:collect="always"
       xlink:href="#linearGradient3759"
       id="linearGradient3007"
       gradientUnits="userSpaceOnUse"
       gradientTransform="translate(0,0.88499066)"
       x1="14.903234"
       y1="4.3802299"
       x2="14.894068"
       y2="8.0677967" />
  </defs>
  <sodipodi:namedview
     pagecolor="#ffffff"
     bordercolor="#666666"
     borderopacity="1"
     objecttolerance="10"
     gridtolerance="10"
     guidetolerance="10"
     inkscape:pageopacity="0"
     inkscape:pageshadow="2"
     inkscape:window-width="1541"
     inkscape:window-height="1012"
     id="namedview6"
     showgrid="false"
     inkscape:zoom="15.819376"
     inkscape:cx="26.860882"
     inkscape:cy="16.002856"
     inkscape:window-x="405"
     inkscape:window-y="39"
     inkscape:window-maximized="0"
     inkscape:current-layer="svg2" />
  <g
     id="g3002"
     transform="translate(-0.12642724,1.8964086)">
    <path
       sodipodi:nodetypes="ccccccc"
       style="fill:#66ff00"
       inkscape:connector-curvature="0"
       id="path4"
       d="m 14.379282,23.879796 -6.4140003,-7.414 1.828,-1.828 4.5860003,3.586 8.586,-7.586 1.829,1.828 z" />
    <path
       sodipodi:nodetypes="cssssccccccccccc"
       style="fill:url(#linearGradient3007);fill-opacity:1;stroke:none"
       inkscape:connector-curvature="0"
       d="m 20.25,4.8849907 0,-2 c 0,-1.105 -0.895,-2.00000004 -2,-2.00000004 l -4,0 c -1.105,0 -2,0.89500004 -2,2.00000004 l 0,2 -4,0 0,4 16,0 0,-4 z m -2,0 -4,0 0,-2 4,0 z"
       id="path2987" />
    <path
       id="path2989"
       d="m 25.610864,4.8849907 c 0.002,0.002 0.005,0.005 0.007,0.007 l 0,20.4460373 c -0.002,0.002 -0.005,0.005 -0.007,0.007 l -18.7217278,0 c -0.003,-0.002 -0.005,-0.005 -0.007,-0.007 l 0,-20.4460373 c 0.002,-0.003 0.005,-0.005 0.007,-0.007 l -2.1738051,0 0,20.4600373 c 0,2.2 -0.033195,2.230019 2.1668051,2.230019 l 18.7357278,0 c 2.2,0 2.230018,-0.03002 2.230018,-2.230019 l 0,-20.4600373 z"
       inkscape:connector-curvature="0"
       style="fill:#6c5353;stroke:#000000;stroke-width:0.30000001;stroke-miterlimit:4;stroke-opacity:1;stroke-dasharray:none"
       sodipodi:nodetypes="cccccccccsssscc" />
  </g>
</svg>
