<?xml version="1.0" encoding="UTF-8" standalone="no"?>
<!-- Created with Inkscape (http://www.inkscape.org/) -->

<svg
   xmlns:dc="http://purl.org/dc/elements/1.1/"
   xmlns:cc="http://creativecommons.org/ns#"
   xmlns:rdf="http://www.w3.org/1999/02/22-rdf-syntax-ns#"
   xmlns:svg="http://www.w3.org/2000/svg"
   xmlns="http://www.w3.org/2000/svg"
   xmlns:sodipodi="http://sodipodi.sourceforge.net/DTD/sodipodi-0.dtd"
   xmlns:inkscape="http://www.inkscape.org/namespaces/inkscape"
   width="235"
   height="245"
   id="svg2"
   version="1.1"
   inkscape:version="0.48.5 r10040"
   sodipodi:docname="EngineRocket3.svg">
  <defs
     id="defs4" />
  <sodipodi:namedview
     id="base"
     pagecolor="#ffffff"
     bordercolor="#666666"
     borderopacity="1.0"
     inkscape:pageopacity="0.0"
     inkscape:pageshadow="2"
     inkscape:zoom="3.8557353"
     inkscape:cx="115.92357"
     inkscape:cy="121.01911"
     inkscape:document-units="px"
     inkscape:current-layer="layer1"
     showgrid="false"
     inkscape:window-width="1511"
     inkscape:window-height="1178"
     inkscape:window-x="353"
     inkscape:window-y="99"
     inkscape:window-maximized="0"
     fit-margin-top="10"
     fit-margin-left="10"
     fit-margin-bottom="10"
     fit-margin-right="10"
     width="49px" />
  <metadata
     id="metadata7">
    <rdf:RDF>
      <cc:Work
         rdf:about="">
        <dc:format>image/svg+xml</dc:format>
        <dc:type
           rdf:resource="http://purl.org/dc/dcmitype/StillImage" />
        <dc:title></dc:title>
      </cc:Work>
    </rdf:RDF>
  </metadata>
  <g
     inkscape:label="Layer 1"
     inkscape:groupmode="layer"
     id="layer1"
     transform="translate(-71.172907,-732.87433)">
    <g
       id="g3956"
       transform="translate(-73.107289,45.600519)">
      <path
         inkscape:connector-curvature="0"
         id="path3242"
         d="m 254.448,691.82986 c -2.42885,0.73305 -4.83825,1.71548 -7.19737,2.95369 -0.94367,0.49528 -1.88612,1.03224 -2.81341,1.60886 -1.85457,1.15322 -3.67869,2.47134 -5.44987,3.95159 -1.32844,1.1102 -2.61741,2.30992 -3.88717,3.60519 -4.23252,4.31757 -8.12394,9.66738 -11.46279,16.06474 -0.43915,0.77325 -0.87128,1.5653 -1.3016,2.36747 -0.33535,0.62515 -0.66094,1.25727 -0.99092,1.89925 -0.32052,0.62365 -0.64347,1.25122 -0.95892,1.89015 -0.0569,0.11525 -0.11474,0.22712 -0.17145,0.34285 -0.12055,0.24589 -0.23351,0.50184 -0.35326,0.74989 -0.0172,0.0353 -0.0423,0.0673 -0.0593,0.10266 -0.0978,0.20293 -0.18723,0.40345 -0.28453,0.60781 -0.20826,0.43737 -0.42242,0.8745 -0.62836,1.31826 -0.10735,0.23113 -0.21275,0.45844 -0.3194,0.69126 -0.009,0.0197 -0.0249,0.0389 -0.0339,0.0587 -0.16875,0.36883 -0.31906,0.74554 -0.48622,1.11854 -0.16903,0.37717 -0.35078,0.74631 -0.51819,1.12764 -0.18551,0.42233 -0.35645,0.85359 -0.53998,1.28088 -0.12507,0.29117 -0.24996,0.58493 -0.3741,0.87836 -0.005,0.01 -0.0127,0.0192 -0.0169,0.0293 -0.004,0.01 -0.0128,0.0194 -0.0169,0.0293 -0.12948,0.30636 -0.25509,0.60905 -0.38355,0.9178 -0.0595,0.14292 -0.12357,0.28842 -0.18282,0.43184 -0.0243,0.0589 -0.0379,0.11809 -0.0622,0.177 -0.18368,0.44607 -0.36881,0.89425 -0.55038,1.3451 -0.11605,0.28803 -0.23447,0.56922 -0.34966,0.85914 -0.0416,0.10474 -0.0735,0.20956 -0.11501,0.31454 -0.0635,0.16059 -0.12153,0.32024 -0.18475,0.4814 -0.009,0.0228 -0.0175,0.046 -0.0264,0.0688 -0.2621,0.66871 -0.5323,1.33557 -0.78985,2.01363 -0.0313,0.0824 -0.0574,0.16327 -0.0886,0.24576 -0.59384,1.56951 -1.18182,3.17138 -1.75157,4.7868 -0.0255,0.0722 -0.0462,0.14415 -0.0717,0.21644 -0.0304,0.0864 -0.0668,0.17393 -0.0971,0.26043 -0.51078,1.45803 -1.00908,2.93091 -1.5002,4.42123 -0.37893,1.1499 -0.74851,2.31176 -1.11567,3.47865 -0.14127,0.44896 -0.26893,0.90247 -0.40844,1.35375 -0.0361,0.11655 -0.0725,0.23273 -0.10847,0.34943 -0.4503,1.46312 -0.89439,2.93613 -1.32628,4.42079 -0.38238,1.31451 -0.75112,2.64111 -1.119,3.96973 -0.12951,0.46778 -0.26667,0.92945 -0.39439,1.39876 -0.0328,0.12051 -0.0683,0.23895 -0.10095,0.35956 -0.46697,1.72359 -0.92964,3.45329 -1.37219,5.19355 -0.46831,1.84152 -0.92145,3.69235 -1.3622,5.54606 -0.1421,0.59755 -0.27064,1.19689 -0.40984,1.79525 -0.31715,1.36323 -0.63176,2.72312 -0.93393,4.08865 -0.0673,0.30405 -0.12711,0.60871 -0.19365,0.9128 -0.3524,1.61051 -0.71044,3.22114 -1.04186,4.83003 -0.10731,0.52088 -0.20861,1.03921 -0.3137,1.55962 -0.23959,1.1864 -0.46371,2.37144 -0.69178,3.55415 -0.19393,1.00555 -0.39002,2.00474 -0.57559,3.00646 -0.13193,0.71223 -0.26368,1.42328 -0.39138,2.13311 -0.19504,1.08403 -0.39164,2.16228 -0.57677,3.23961 -0.18933,1.10177 -0.3603,2.19691 -0.53921,3.2902 -0.0771,0.47162 -0.15371,0.94314 -0.22895,1.41298 -0.24175,1.50975 -0.46737,3.00796 -0.68899,4.49686 -0.0511,0.34323 -0.11649,0.68562 -0.1665,1.02762 -0.20541,1.40443 -0.39425,2.79065 -0.58149,4.17221 -0.0569,0.41971 -0.11248,0.84336 -0.16769,1.26076 -0.20043,1.51567 -0.39237,3.01756 -0.57054,4.49994 -0.0293,0.24424 -0.0631,0.49357 -0.0919,0.73684 -0.0177,0.14972 -0.0319,0.30582 -0.0494,0.45516 -0.18374,1.5715 -0.35517,3.12818 -0.51335,4.65521 -0.16557,1.59801 -0.31489,3.16811 -0.45232,4.71138 -0.0744,0.83507 -0.14045,1.64272 -0.20652,2.46039 -0.0751,0.92885 -0.15377,1.85272 -0.2181,2.75775 -0.009,0.12244 -0.0135,0.23961 -0.022,0.3616 -0.0515,0.73755 -0.0877,1.44898 -0.13195,2.16961 -0.21146,-0.0531 -0.43118,-0.094 -0.67484,-0.12667 -0.37789,-0.0504 -0.78888,-0.0734 -1.238,-0.0768 -0.005,-1.7e-4 -0.0107,0.004 -0.016,0.004 -0.22064,-0.002 -0.45199,0.003 -0.68814,0.0119 -0.079,0.003 -0.16464,0.004 -0.24534,0.009 -0.0584,0.003 -0.12313,0.0112 -0.1824,0.0151 -0.27057,0.0175 -0.55305,0.0372 -0.84049,0.0675 -0.0862,0.009 -0.18219,0.0175 -0.26983,0.0277 -0.53907,0.0631 -1.09754,0.15453 -1.68581,0.25889 -0.29297,0.0519 -0.59627,0.10841 -0.89983,0.17013 -1.01608,0.20679 -2.09095,0.46627 -3.19987,0.77526 -3.14903,0.87775 -6.60114,2.13991 -9.88108,3.66792 -1.22956,0.57256 -2.42098,1.18824 -3.58074,1.82709 -0.10056,0.0554 -0.20678,0.10488 -0.30661,0.16073 -0.75945,0.42471 -1.4912,0.86406 -2.20111,1.31219 -0.18636,0.11767 -0.36892,0.23369 -0.55125,0.35283 -0.3017,0.19701 -0.60291,0.3963 -0.89274,0.59699 -0.0176,0.0121 -0.0315,0.0263 -0.0489,0.0384 -0.65788,0.45718 -1.28579,0.91664 -1.87218,1.39018 -0.19336,0.15618 -0.37144,0.31903 -0.55607,0.47672 -0.13174,0.11244 -0.25778,0.22911 -0.38483,0.34227 -0.11611,0.10342 -0.23984,0.2044 -0.35191,0.30838 -0.27059,0.25093 -0.53426,0.495 -0.78008,0.74876 -0.34736,0.40471 -0.66288,0.80874 -0.99585,1.21447 -0.47265,0.57575 -0.94348,1.15166 -1.38744,1.7302 -0.23077,0.30079 -0.46035,0.60332 -0.68341,0.90505 -0.0525,0.0709 -0.0986,0.14342 -0.15064,0.21439 -0.43395,0.59224 -0.85028,1.18157 -1.25495,1.77829 -0.0879,0.12957 -0.16579,0.26055 -0.25233,0.39035 -0.36393,0.54617 -0.72793,1.08843 -1.06773,1.63928 -0.009,0.0145 -0.0164,0.0295 -0.0254,0.044 -0.34509,0.56059 -0.68629,1.12921 -1.00667,1.69543 -0.1262,0.22296 -0.25149,0.44607 -0.3739,0.66999 -0.28383,0.51943 -0.54842,1.04155 -0.81195,1.56653 -0.0971,0.19345 -0.18916,0.38877 -0.28356,0.58303 -0.22304,0.45919 -0.44693,0.92306 -0.65477,1.38704 -0.055,0.12275 -0.11847,0.24452 -0.17241,0.36762 -0.20722,0.47299 -0.39357,0.95009 -0.58525,1.42854 -0.15427,0.38485 -0.31189,0.77039 -0.45618,1.15902 -0.0304,0.0817 -0.0587,0.16384 -0.0886,0.24576 -0.53607,1.4681 -0.98763,2.96909 -1.38464,4.49865 -0.0778,0.30018 -0.16806,0.59886 -0.24064,0.90167 -0.0417,0.17411 -0.0752,0.3479 -0.11522,0.5229 -0.0753,0.32915 -0.1434,0.65931 -0.21254,0.9917 -0.14339,0.6887 -0.288,1.38476 -0.40543,2.08808 -0.0332,0.19883 -0.0635,0.40278 -0.0946,0.60282 -0.0455,0.2926 -0.0801,0.5847 -0.12123,0.87996 -0.0748,0.53619 -0.13677,1.06697 -0.19718,1.61225 -0.14279,1.2864 -0.26313,2.59978 -0.32743,3.94066 -0.004,0.0996 -0.007,0.19746 -0.0116,0.29737 -0.0202,0.46498 -0.0355,0.92589 -0.0465,1.39787 -3.1e-4,0.0256 -0.003,0.0487 -0.003,0.0743 -2.1e-4,0.0117 0.007,0.0232 0.007,0.0349 -0.0106,0.50773 -0.0198,1.02162 -0.0204,1.53745 -7e-5,0.49601 0.003,0.99959 0.0125,1.50359 3.4e-4,0.02 0.005,0.0396 0.006,0.0597 0.005,0.24349 0.012,0.48442 0.019,0.7298 0.008,0.28661 0.0104,0.57495 0.0212,0.86382 0.0155,0.39008 0.0364,0.77742 0.0571,1.17233 0.008,0.14563 0.0224,0.28613 0.0306,0.43242 0.0298,0.54412 0.0533,1.0851 0.0943,1.63967 3.9e-4,0.004 0.007,0.007 0.007,0.0101 0.10065,0.15797 0.21552,0.31622 0.32951,0.46994 0.007,0.0101 0.0149,0.0203 0.0223,0.0304 0.0947,0.12682 0.19776,0.25603 0.30134,0.37993 0.10556,0.12625 0.21894,0.24765 0.3333,0.37084 0.0115,0.0127 0.0182,0.0278 0.0301,0.0404 0.0364,0.0389 0.0688,0.0783 0.10604,0.11689 0.0222,0.0226 0.0465,0.0436 0.0687,0.0662 0.003,0.003 0.004,0.007 0.007,0.0101 0.009,0.01 0.0285,0.0162 0.0389,0.0257 0.0379,0.0381 0.0674,0.079 0.10612,0.11685 0.0654,0.0633 0.13057,0.12624 0.19775,0.1889 0.21198,0.19643 0.42338,0.3846 0.65744,0.57272 0.0155,0.0121 0.0307,0.0237 0.0463,0.0358 0.003,0.003 0.004,0.007 0.007,0.0101 0.11462,0.091 0.23354,0.17816 0.35317,0.26716 0.0556,0.0409 0.11274,0.0828 0.16905,0.12348 0.0245,0.0181 0.052,0.0337 0.077,0.0516 0.17314,0.12338 0.3564,0.2419 0.53922,0.36129 0.003,0.003 0.003,0.008 0.007,0.0101 0.20902,0.1364 0.40356,0.26703 0.62474,0.39823 0.22124,0.13117 0.45576,0.25409 0.68868,0.38004 0.21515,0.1159 0.43365,0.22833 0.65865,0.33958 0.0415,0.0207 0.0821,0.0422 0.12404,0.0627 0.2067,0.10066 0.4143,0.20218 0.62861,0.2991 0.0453,0.0206 0.0945,0.0378 0.14003,0.0582 0.017,0.008 0.0372,0.0136 0.0545,0.0212 0.19068,0.0844 0.37897,0.1714 0.57506,0.25307 0.0221,0.009 0.0398,0.0222 0.062,0.0313 0.26821,0.11094 0.53995,0.21293 0.81754,0.31889 0.38217,0.14584 0.76915,0.2916 1.16901,0.42724 0.0786,0.0267 0.15465,0.0542 0.234,0.0805 0.0943,0.0312 0.18575,0.061 0.28098,0.0916 0.007,0.003 0.0161,0.003 0.0235,0.006 0.13502,0.0435 0.26969,0.0874 0.40597,0.12961 0.73295,0.22676 1.50404,0.43049 2.28374,0.62485 0.0151,0.004 0.0316,0.007 0.047,0.0111 0.32005,0.0794 0.62034,0.15899 0.94735,0.23295 0.0829,0.0189 0.16753,0.0326 0.25094,0.0512 0.30895,0.0683 0.62629,0.13465 0.94081,0.19806 0.22603,0.0461 0.45365,0.0932 0.68236,0.13678 0.12072,0.0227 0.23946,0.0469 0.36092,0.0689 0.22958,0.0421 0.45892,0.0826 0.69082,0.12211 0.36409,0.0615 0.73008,0.12206 1.09971,0.17738 0.51695,0.0774 1.03864,0.13904 1.56501,0.20433 0.029,0.004 0.0575,0.009 0.0864,0.0122 0.26524,0.0326 0.53546,0.0607 0.80274,0.0903 0.30167,0.0332 0.60119,0.0686 0.90518,0.0979 0.0208,0.002 0.0421,0.004 0.063,0.007 1.34253,0.12901 2.70451,0.22243 4.07586,0.27446 0.70156,0.0266 1.40459,0.0433 2.10853,0.0497 0.0265,2.2e-4 0.0525,0.002 0.0789,0.002 0.006,-1.8e-4 0.0106,-0.004 0.016,-0.004 0.33452,0.003 0.6696,-0.002 1.004,-0.004 0.32098,-0.002 0.64393,10e-4 0.96452,-0.005 0.071,-10e-4 0.14248,0.002 0.21339,5.7e-4 0.20129,-0.004 0.40069,-0.0181 0.60167,-0.0241 0.0819,-0.003 0.16349,-0.006 0.24535,-0.009 0.17672,-0.006 0.35382,-0.009 0.53022,-0.016 0.0556,-0.003 0.11079,-0.008 0.16637,-0.0106 0.10608,-0.004 0.21086,-0.0116 0.31683,-0.0166 0.1076,-0.005 0.21688,-6.3e-4 0.32434,-0.006 0.006,-1.8e-4 0.0106,-0.004 0.016,-0.004 0.21644,-0.0113 0.43389,-0.0244 0.64963,-0.0377 0.44385,-0.0274 0.88355,-0.059 1.32371,-0.0946 0.10919,-0.009 0.21639,-0.0219 0.3253,-0.0313 0.0312,-0.003 0.0636,2.5e-4 0.0949,-0.003 0.5333,-0.0465 1.05359,-0.10858 1.5795,-0.16739 0.22762,-0.0254 0.45654,-0.0439 0.68256,-0.0716 0.077,-0.009 0.15363,-0.019 0.23035,-0.0288 0.52111,-0.0658 1.03833,-0.12972 1.54944,-0.20785 0.24923,-0.0381 0.49341,-0.0836 0.73997,-0.12467 0.0688,-0.0114 0.13821,-0.0227 0.20688,-0.0343 0.3384,-0.0577 0.67791,-0.11392 1.01076,-0.17718 0.99638,-0.18916 1.97271,-0.40459 2.91018,-0.64387 0.1077,-0.0274 0.21282,-0.0629 0.3197,-0.0909 0.0436,-0.0116 0.0918,-0.0146 0.1354,-0.0263 0.15437,-0.0412 0.31112,-0.0893 0.46356,-0.13187 0.30415,-0.0853 0.60748,-0.17844 0.9037,-0.26924 0.14853,-0.0453 0.29377,-0.0906 0.44009,-0.13742 0.43912,-0.1406 0.86267,-0.28482 1.28177,-0.43806 0.28002,-0.10243 0.56369,-0.20268 0.83415,-0.31076 0.20516,-0.0818 0.40355,-0.17209 0.60315,-0.25696 0.0888,-0.038 0.17736,-0.0738 0.26522,-0.11217 0.0151,-0.007 0.0255,-0.017 0.0402,-0.0239 0.0139,-0.006 0.0338,-0.007 0.048,-0.0135 0.20651,-0.0915 0.40424,-0.18669 0.60381,-0.28201 0.12388,-0.0595 0.24911,-0.11827 0.37061,-0.17889 0.11896,-0.0595 0.23071,-0.12367 0.34706,-0.18449 0.005,-0.003 0.012,-0.002 0.016,-0.004 0.23508,-0.12309 0.46274,-0.25051 0.68666,-0.37909 0.0584,-0.0335 0.12014,-0.0656 0.17775,-0.0996 0.1691,-0.0996 0.33162,-0.19687 0.49386,-0.29975 0.0264,-0.0166 0.0547,-0.0309 0.0809,-0.0475 0.18672,-0.11967 0.36659,-0.23895 0.54373,-0.36295 0.20111,-0.14075 0.39796,-0.28969 0.58612,-0.43627 0.049,-0.0381 0.0987,-0.0768 0.14679,-0.11523 0.0179,-0.0145 0.0236,-0.0341 0.0414,-0.0485 0.0162,-0.0129 0.033,-0.0254 0.0489,-0.0384 0.0395,-0.0323 0.0833,-0.0635 0.12232,-0.096 0.0632,-0.0529 0.13418,-0.1001 0.1957,-0.15367 0.34925,-0.30366 0.66834,-0.62132 0.96173,-0.94745 0.002,-0.003 0.0137,-0.002 0.016,-0.004 0.29532,-0.32898 0.55612,-0.66946 0.7907,-1.02134 -1.0088,-2.99843 -1.89699,-5.60848 -2.6907,-8.03264 -0.0645,-0.19716 -0.12783,-0.37603 -0.19119,-0.57054 -0.0293,-0.0901 -0.0553,-0.18054 -0.0844,-0.2701 -0.16165,-0.49759 -0.31807,-0.98827 -0.47229,-1.47087 0.18858,0.21312 0.3872,0.42188 0.58407,0.63037 0.0363,0.0388 0.0693,0.0783 0.10612,0.11685 0.31037,0.32483 0.6363,0.64913 0.96633,0.96276 0.0468,0.044 0.0906,0.0885 0.13735,0.13245 0.32484,0.30424 0.65016,0.60011 0.99278,0.89397 0.18343,0.15703 0.37048,0.31188 0.55887,0.46598 0.25965,0.21277 0.5285,0.42372 0.79748,0.63092 0.0431,0.0328 0.0875,0.0649 0.13053,0.0977 0.4143,0.31609 0.81688,0.62727 1.25216,0.93047 0.0211,0.0149 0.0481,0.0267 0.0695,0.0415 0.85665,0.59412 1.75181,1.16616 2.68403,1.71183 0.11328,0.0662 0.2258,0.13182 0.3401,0.19735 0.46079,0.26437 0.94689,0.51813 1.42436,0.77123 0.0346,0.0184 0.0658,0.0389 0.10054,0.0572 4.40025,2.31943 9.48967,4.17354 14.94136,5.62682 0.0844,0.0225 0.1739,0.039 0.25845,0.0613 -0.002,0.0246 -6.6e-4,0.0497 -0.003,0.0743 -0.0273,0.27776 -0.056,0.55091 -0.0798,0.83142 -0.011,0.12937 -0.0127,0.25642 -0.0229,0.38638 -0.0391,0.49625 -0.078,0.99537 -0.10589,1.50052 -0.0287,0.5207 -0.045,1.05548 -0.0618,1.58599 -0.006,0.20421 -0.004,0.40927 -0.008,0.61498 -0.0121,0.53317 -0.0233,1.06858 -0.0233,1.61181 -2.3e-4,0.0659 -0.008,0.13215 -0.008,0.19824 6.5e-4,0.24755 0.007,0.49476 0.011,0.74447 -2e-4,0.0298 -0.0118,0.0593 -0.0114,0.089 0.006,0.35852 0.011,0.70906 0.0218,1.07219 4e-4,0.004 0.007,0.007 0.007,0.0101 0.003,0.0929 0.01,0.18493 0.0125,0.27817 -6.8e-4,0.005 -0.009,0.01 -0.009,0.0146 -1e-5,0.032 -0.005,0.0673 -0.004,0.0992 0.0162,0.49182 0.0504,0.98491 0.0765,1.4854 0.004,0.062 -0.003,0.12141 9.3e-4,0.18358 4e-4,0.004 0.007,0.007 0.007,0.0101 0.026,0.46972 0.0598,0.95371 0.0944,1.43129 3.9e-4,0.004 0.007,0.007 0.007,0.0101 0.037,0.50981 0.0746,1.02709 0.12153,1.54611 0.009,0.0991 0.0186,0.19899 0.0279,0.29839 0.0315,0.33515 0.0517,0.66539 0.0873,1.00445 0.0175,0.16688 0.0412,0.32981 0.0597,0.49767 3.9e-4,0.004 0.007,0.007 0.007,0.0101 0.063,0.56977 0.11904,1.14055 0.19377,1.72162 0.39357,0.56358 0.85762,1.10695 1.36706,1.633 0.003,0.003 0.004,0.007 0.007,0.0101 0.2513,0.26111 0.52538,0.52182 0.80769,0.77507 0.56839,0.50976 1.19215,0.99618 1.86359,1.46727 0.0578,0.0406 0.11056,0.0831 0.16905,0.12348 0.24382,0.16785 0.49905,0.33287 0.7553,0.49588 0.0397,0.0252 0.0756,0.0523 0.11554,0.0774 0.31541,0.19829 0.6402,0.39003 0.97331,0.58092 0.11558,0.0661 0.23842,0.12763 0.35608,0.19281 0.0477,0.0264 0.091,0.0567 0.13906,0.083 0.24733,0.13568 0.50314,0.26509 0.75917,0.39675 0.0391,0.0201 0.0688,0.0474 0.108,0.0673 0.54376,0.27689 1.11965,0.54467 1.69977,0.80319 0.26521,0.11791 0.52819,0.23407 0.80058,0.34822 0.004,0.002 0.003,0.008 0.007,0.0101 0.88815,0.37217 1.81468,0.71759 2.77307,1.04933 0.4792,0.16587 0.96444,0.32375 1.45944,0.47943 0.98999,0.31134 2.01854,0.59818 3.06469,0.86836 1.56921,0.40528 3.18569,0.77146 4.85059,1.0834 0.004,5.2e-4 0.0118,-0.005 0.016,-0.004 0.55072,0.10309 1.11136,0.20395 1.67208,0.29642 0.006,6.3e-4 0.0102,-0.006 0.016,-0.004 0.22729,0.0374 0.45475,0.0763 0.68332,0.11201 0.008,10e-4 0.0155,0.004 0.0234,0.006 0.31131,0.048 0.62152,0.0936 0.93523,0.13837 0.0528,0.008 0.10412,0.0213 0.15697,0.0289 0.24371,0.0344 0.48691,0.0656 0.73127,0.0984 0.87259,0.11726 1.75036,0.22384 2.63563,0.31646 1.16867,0.12227 2.35467,0.22622 3.53718,0.30513 4.73009,0.31563 9.52996,0.28253 14.10591,-0.11518 1.8773,-0.16316 3.71645,-0.39376 5.49635,-0.68093 2.92015,-0.47115 5.68906,-1.10401 8.20034,-1.91557 1.0045,-0.32462 1.97617,-0.67574 2.89462,-1.05605 4.13297,-1.71138 7.33984,-3.99147 9.0731,-6.86906 0.1246,-0.70248 0.224,-1.40193 0.32646,-2.09014 0.0707,-0.47496 0.12923,-0.9458 0.18947,-1.414 0.0602,-0.4672 0.11495,-0.93392 0.16501,-1.39479 0.0408,-0.37697 0.0808,-0.75044 0.1149,-1.12323 0.008,-0.0852 0.0181,-0.16733 0.0256,-0.25235 0.10438,-1.19223 0.1786,-2.36448 0.21606,-3.51688 0.006,-0.16956 0.008,-0.33701 0.0118,-0.50574 0.011,-0.45145 0.0116,-0.89335 0.0126,-1.33921 7.1e-4,-0.19702 -0.007,-0.38973 -0.009,-0.58566 -0.002,-0.22342 0.007,-0.45258 0.003,-0.67466 -0.0204,-1.13105 -0.071,-2.2409 -0.15448,-3.33798 10.08898,-1.90057 19.01727,-5.23741 24.85171,-10.9644 -0.363,1.00027 -0.74668,2.00748 -1.14818,3.09579 -0.5499,1.48792 -1.05462,2.85584 -1.68741,4.56025 0.11177,0.17978 0.23111,0.36067 0.35856,0.5352 0.44359,0.60753 0.98938,1.17944 1.60856,1.72361 0.0489,0.0426 0.0876,0.0902 0.13735,0.13246 0.0444,0.0374 0.0932,0.0705 0.13808,0.10777 0.0398,0.0332 0.0743,0.0691 0.11497,0.10203 0.14921,0.12151 0.30268,0.24117 0.46027,0.35923 0.39605,0.29674 0.80943,0.58045 1.25506,0.85614 0.003,0.002 0.0205,0.004 0.0235,0.006 0.21981,0.13582 0.43309,0.26856 0.66423,0.39925 0.23755,0.13455 0.4866,0.26209 0.73567,0.39119 0.24563,0.12728 0.48787,0.25452 0.74414,0.37652 0.25628,0.122 0.51815,0.23606 0.7846,0.35276 0.23513,0.10314 0.46452,0.20317 0.70757,0.30116 1.13542,0.463 2.35493,0.87312 3.63492,1.24534 0.004,10e-4 0.003,0.009 0.007,0.0101 1.2359,0.35901 2.52126,0.67461 3.85989,0.94854 0.004,5.2e-4 0.0119,-0.005 0.016,-0.004 0.33165,0.0678 0.66703,0.1421 1.00377,0.20465 0.004,5.2e-4 0.0118,-0.005 0.016,-0.004 0.33674,0.0625 0.68688,0.12822 1.02824,0.18545 1.03694,0.1739 2.08938,0.32379 3.16007,0.44914 2.14183,0.25066 4.33802,0.40206 6.5349,0.45734 0.73214,0.0185 1.45811,0.0304 2.18843,0.027 1.46103,-0.007 2.9075,-0.0609 4.3377,-0.15536 0.006,-1.8e-4 0.0105,-0.004 0.016,-0.004 2.49688,-0.16559 4.92599,-0.45986 7.19623,-0.8948 0.64994,-0.12454 1.29847,-0.26478 1.92096,-0.41154 1.24532,-0.29356 2.43713,-0.62651 3.54891,-1.00932 0.5558,-0.19138 1.08038,-0.39961 1.59684,-0.61341 1.03319,-0.42763 1.98542,-0.9021 2.83768,-1.41971 0.42609,-0.25879 0.8264,-0.5259 1.20133,-0.80728 0.9374,-0.70344 1.71315,-1.47179 2.28766,-2.31707 0.0598,-0.57205 0.12008,-1.13992 0.1691,-1.70228 0.0109,-0.12616 0.0202,-0.25058 0.0305,-0.37626 0.0329,-0.39632 0.05,-0.7822 0.0773,-1.1738 0.0197,-0.28637 0.0482,-0.56778 0.0648,-0.85165 0.0148,-0.24609 0.0241,-0.48911 0.0365,-0.73334 0.021,-0.42432 0.0352,-0.84495 0.0493,-1.26384 0.003,-0.10021 0.008,-0.19744 0.0116,-0.29737 0.0153,-0.5159 0.0158,-1.02954 0.0204,-1.53745 -1e-5,-0.0377 0.0121,-0.0761 0.0124,-0.1138 -0.005,0.002 -0.0112,0.003 -0.016,0.004 0.0996,-13.6616 -3.72039,-24.48016 -12.32772,-35.17768 -6.43579,-7.08198 -22.27033,-13.52971 -29.31163,-13.53591 -0.61219,-28.55833 -7.4331,-67.65959 -18.11816,-99.78452 -0.31103,-0.93524 -0.61678,-1.87471 -0.93435,-2.7976 -0.16494,-0.47962 -0.33103,-0.95073 -0.49774,-1.42687 -0.1551,-0.4428 -0.30546,-0.88707 -0.46207,-1.32673 -0.19893,-0.55903 -0.3977,-1.11383 -0.59902,-1.66764 -0.12954,-0.3563 -0.26314,-0.69804 -0.39374,-1.05208 -0.46595,-1.26476 -0.92526,-2.50782 -1.40343,-3.74248 -0.20215,-0.52155 -0.40703,-1.038 -0.61134,-1.55385 -0.10567,-0.267 -0.21071,-0.52667 -0.31692,-0.7921 -0.2393,-0.59763 -0.47893,-1.19047 -0.72112,-1.77996 -0.0725,-0.17696 -0.14369,-0.3504 -0.21659,-0.52655 -0.62986,-1.52172 -1.26374,-3.01699 -1.91217,-4.48004 -0.26088,-0.62944 -0.53566,-1.23997 -0.81319,-1.8518 -0.55499,-1.22366 -1.13997,-2.41559 -1.75802,-3.56811 -0.62004,-1.15629 -1.26966,-2.27087 -1.94815,-3.35475 -0.3381,-0.54027 -0.67699,-1.07234 -1.02868,-1.59445 -1.05748,-1.57023 -2.17472,-3.04846 -3.34371,-4.45275 -0.38881,-0.46702 -0.77189,-0.9215 -1.17181,-1.36995 -1.19662,-1.34197 -2.44858,-2.60439 -3.73384,-3.77815 -0.003,-0.004 -0.005,-0.007 -0.007,-0.0101 -0.85941,-0.7841 -1.73164,-1.5232 -2.62428,-2.2312 -7.58641,-6.01962 -16.30008,-9.27044 -24.60789,-9.49445 -3.90961,-0.1054 -7.8429,0.42291 -11.72905,1.59579 z"
         style="fill:#1a1a1a;fill-rule:evenodd;stroke:#1a1a1a;stroke-width:4.47862816" />
      <path
         sodipodi:nodetypes="sccccssccs"
         inkscape:connector-curvature="0"
         id="rect3011"
         d="m 266.18489,690.23512 c -15.63834,-0.42162 -31.8522,9.30956 -42.53653,29.78113 -25.02881,44.07096 -35.73866,136.20659 -28.46053,150.5641 9.74709,19.54058 40.73671,29.96629 70.17275,30.16847 0.89199,0.006 1.79554,0.003 2.68536,-0.0108 7.11879,-0.10396 14.15247,-0.82086 20.79065,-2.1717 0.82978,-0.16886 1.64686,-0.34704 2.46376,-0.53574 17.15508,-3.96268 27.61646,-11.65602 39.03608,-24.84306 9.02555,-26.26583 -2.36905,-104.42604 -23.12047,-151.24308 -8.34664,-20.14252 -25.39274,-31.28772 -41.03107,-31.70934 z"
         style="fill:#ffffff;fill-rule:evenodd;stroke:none" />
      <path
         sodipodi:nodetypes="cscccccc"
         inkscape:connector-curvature="0"
         id="path3040"
         d="m 331.71191,866.86398 c -19.92336,9.69046 -45.82601,15.21022 -70.69702,14.7964 -24.83439,-0.41321 -47.95452,-6.55227 -67.55223,-16.87305 0.1532,2.0174 0.31417,4.04328 0.49823,6.09719 -0.39769,25.94423 40.58644,32.67812 70.46239,32.88761 0.90533,0.006 1.82237,0.003 2.72551,-0.0101 28.56062,0.004 62.81946,-3.67929 63.2295,-30.42845 0.28363,-2.20396 1.12235,-4.51552 1.33362,-6.4696 z"
         style="fill:#333333;fill-opacity:1;fill-rule:evenodd;stroke:none" />
      <path
         inkscape:connector-curvature="0"
         id="path3964"
         d="m 266.18336,690.23351 c -15.63834,-0.42163 -31.85219,9.30956 -42.53652,29.78113 -3.51969,6.19747 -6.76084,13.35126 -9.70399,21.09979 12.99352,7.94747 30.89095,13.02451 50.7259,13.35453 19.59064,0.32597 37.44368,-4.03542 50.62805,-11.37978 -2.49488,-7.50202 -5.19805,-14.62774 -8.08487,-21.14068 -8.34666,-20.14253 -25.39025,-31.29337 -41.02857,-31.71499 z"
         style="fill:#483e37;fill-opacity:1;fill-rule:evenodd;stroke:none" />
      <path
         sodipodi:nodetypes="cccccccc"
         inkscape:connector-curvature="0"
         id="path3981"
         d="m 266.18336,690.23351 c -15.63834,-0.42163 -31.85219,9.30956 -42.53652,29.78113 -22.77577,40.10376 -33.69456,120.00095 -29.9915,144.88046 -0.0651,-0.0342 -0.12775,-0.0688 -0.19279,-0.103 0.1532,2.01739 0.30546,4.04312 0.48953,6.09705 -0.2793,18.21996 19.86595,26.95143 42.22904,30.61477 -7.97991,-22.98686 -10.08932,-49.25365 -12.01153,-81.90649 -0.37841,-60.84431 12.77891,-114.99096 42.01374,-129.3639 z"
         style="opacity:0.3688525;fill:#917c6f;fill-rule:evenodd;stroke:none" />
      <path
         inkscape:connector-curvature="0"
         id="path3016"
         d="m 262.32986,851.61008 c -7.62838,0.0389 -15.42622,3.52669 -20.58512,10.65966 -12.48334,15.84635 -19.54373,30.08926 -16.44695,54.17156 6.33533,9.07153 28.27803,13.31261 46.58178,11.72177 1.87731,-0.16316 3.7245,-0.38651 5.5044,-0.67368 9.3445,-1.50768 17.0673,-4.7305 20.14866,-9.8462 0.1246,-0.70249 0.22989,-1.40245 0.33237,-2.09065 3.17644,-21.33423 -4.16742,-35.94698 -15.11063,-52.60046 -4.37112,-7.51698 -12.30397,-11.38338 -20.42451,-11.342 z"
         style="fill:#ccff00;fill-opacity:1;fill-rule:evenodd;stroke:none" />
      <path
         sodipodi:nodetypes="ccccsc"
         inkscape:connector-curvature="0"
         id="path3018"
         d="m 194.30101,864.60132 c 2.18348,12.32386 4.25913,18.43438 8.67117,31.54821 -7.50667,11.26015 -47.11294,10.78 -54.13137,-0.27856 -1.30083,-17.6721 2.57422,-30.44096 13.1874,-42.80681 8.74037,-9.02254 31.88117,-16.83757 31.30936,-10.77934 -0.87176,9.23633 0.20104,14.05789 0.96344,22.3165 z"
         style="fill:#ccff00;fill-rule:evenodd;stroke:none" />
      <path
         style="fill:#ccff00;fill-opacity:1;fill-rule:evenodd;stroke:none"
         d="m 330.65031,867.38999 c -2.56008,12.24494 -5.36523,17.75424 -10.17696,30.7146 7.15773,11.50414 46.75853,12.34189 54.1123,1.52245 1.8418,-17.61981 -1.6399,-30.51108 -11.86866,-43.2237 -8.45938,-9.30872 -29.46444,-18.27957 -29.41915,-12.19334 0.0689,9.26062 -0.66586,15.48002 -2.64753,23.17999 z"
         id="path3026"
         inkscape:connector-curvature="0"
         sodipodi:nodetypes="ccccsc" />
      <path
         inkscape:connector-curvature="0"
         style="fill:#ff6600;fill-rule:evenodd;stroke:none"
         d="m 323.39477,890.16827 c 7.54497,3.57666 16.60108,5.74403 26.37289,5.90661 9.23952,0.15374 17.91224,-1.50235 25.29568,-4.49237 -0.0187,2.57397 -0.18461,5.25048 -0.47663,8.04406 -7.35379,10.81943 -46.96473,9.98253 -54.12246,-1.52161 1.10018,-2.96335 2.06292,-5.54017 2.93052,-7.93669 z"
         id="path3939" />
      <path
         inkscape:connector-curvature="0"
         id="path3935"
         d="m 200.29502,888.11901 c -7.65073,3.32384 -16.76867,5.18881 -26.54047,5.02622 -9.23952,-0.15374 -17.85706,-2.0975 -25.14509,-5.33165 -0.0602,2.57329 0.0236,5.25395 0.22983,8.05582 7.01843,11.05856 46.63483,11.5399 54.1415,0.27974 -1.0088,-2.99842 -1.89207,-5.60597 -2.68578,-8.03013 z"
         style="fill:#ff6600;fill-rule:evenodd;stroke:none" />
      <path
         inkscape:connector-curvature="0"
         id="path3943"
         d="m 224.61465,903.50746 c -0.12603,4.00155 0.0866,8.27842 0.68505,12.93229 6.33534,9.07153 28.27805,13.31261 46.58179,11.72177 1.87731,-0.16316 3.72451,-0.38651 5.5044,-0.67368 9.3445,-1.50767 17.0673,-4.7305 20.14866,-9.8462 0.12461,-0.70249 0.2299,-1.40245 0.33237,-2.09065 0.56574,-3.79975 0.79347,-7.37865 0.73088,-10.80146 -10.56098,4.55306 -23.34725,7.12007 -37.0979,6.89127 -13.75935,-0.22892 -26.46554,-3.22569 -36.88525,-8.13334 z"
         style="fill:#ff6600;fill-opacity:1;fill-rule:evenodd;stroke:none" />
      <path
         transform="matrix(0.35299821,0.00890859,-3.1806288e-4,0.33614358,126.27149,774.73856)"
         d="m 425.71429,160.21933 c 0,22.48588 -18.22841,40.71429 -40.71429,40.71429 -22.48588,0 -40.71429,-18.22841 -40.71429,-40.71429 0,-22.48588 18.22841,-40.71429 40.71429,-40.71429 22.48588,0 40.71429,18.22841 40.71429,40.71429 z"
         sodipodi:ry="40.714287"
         sodipodi:rx="40.714287"
         sodipodi:cy="160.21933"
         sodipodi:cx="385"
         id="path3970"
         style="fill:#6c5353;fill-opacity:1;stroke:none"
         sodipodi:type="arc" />
      <path
         transform="matrix(0.49125016,0.0130085,1.5930026e-4,0.44165573,-33.133037,577.74117)"
         d="m 661.64991,455.8671 c 0,33.19456 -26.90951,60.10407 -60.10407,60.10407 -33.19457,0 -60.10408,-26.90951 -60.10408,-60.10407 0,-33.19457 26.90951,-60.10408 60.10408,-60.10408 33.19456,0 60.10407,26.90951 60.10407,60.10408 z"
         sodipodi:ry="60.104076"
         sodipodi:rx="60.104076"
         sodipodi:cy="455.8671"
         sodipodi:cx="601.54584"
         id="path3014"
         style="fill:#a05a2c;fill-opacity:1;fill-rule:evenodd;stroke:none"
         sodipodi:type="arc" />
      <path
         transform="matrix(0.35511238,0.00940352,1.1945222e-4,0.33118846,50.19883,630.63545)"
         d="m 661.64991,455.8671 c 0,33.19456 -26.90951,60.10407 -60.10407,60.10407 -33.19457,0 -60.10408,-26.90951 -60.10408,-60.10407 0,-33.19457 26.90951,-60.10408 60.10408,-60.10408 33.19456,0 60.10407,26.90951 60.10407,60.10408 z"
         sodipodi:ry="60.104076"
         sodipodi:rx="60.104076"
         sodipodi:cy="455.8671"
         sodipodi:cx="601.54584"
         id="path4033"
         style="fill:#1a1a1a;fill-rule:evenodd;stroke:none"
         sodipodi:type="arc" />
      <path
         sodipodi:type="arc"
         style="fill:#666666;fill-rule:evenodd;stroke:none"
         id="path4035"
         sodipodi:cx="601.54584"
         sodipodi:cy="455.8671"
         sodipodi:rx="60.104076"
         sodipodi:ry="60.104076"
         d="m 661.64991,455.8671 c 0,33.19456 -26.90951,60.10407 -60.10407,60.10407 -33.19457,0 -60.10408,-26.90951 -60.10408,-60.10407 0,-33.19457 26.90951,-60.10408 60.10408,-60.10408 33.19456,0 60.10407,26.90951 60.10407,60.10408 z"
         transform="matrix(0.35511238,0.00940352,1.1679033e-4,0.32380921,47.359123,633.86081)" />
      <path
         sodipodi:type="arc"
         style="fill:#ffffff;fill-rule:evenodd;stroke:none"
         id="path3022"
         sodipodi:cx="601.54584"
         sodipodi:cy="455.8671"
         sodipodi:rx="60.104076"
         sodipodi:ry="60.104076"
         d="m 661.64991,455.8671 c 0,33.19456 -26.90951,60.10407 -60.10407,60.10407 -33.19457,0 -60.10408,-26.90951 -60.10408,-60.10407 0,-33.19457 26.90951,-60.10408 60.10408,-60.10408 33.19456,0 60.10407,26.90951 60.10407,60.10408 z"
         transform="matrix(0.35511238,0.00940352,1.1515875e-4,0.31926179,48.780341,636.0276)" />
      <path
         inkscape:connector-curvature="0"
         id="path4008"
         d="m 260.65259,851.66932 c -7.07728,0.50629 -14.12584,3.98964 -18.90592,10.59887 -10.07096,12.78407 -16.60591,24.53407 -17.13202,41.23927 -0.0159,0.5029 -0.0184,1.00699 -0.0233,1.51906 -0.004,0.47075 -0.009,0.94082 -0.004,1.41957 8.7e-4,0.10673 -0.006,0.21444 -0.005,0.32155 0.006,0.35852 0.008,0.713 0.0188,1.07614 0.003,0.0963 0.0102,0.1919 0.0128,0.28857 0.001,0.0366 -0.003,0.0743 -0.002,0.11089 0.0162,0.49182 0.0394,0.98678 0.0656,1.48726 0.004,0.0634 0.0114,0.12528 0.0151,0.1888 0.026,0.47662 0.0667,0.95874 0.10149,1.44351 0.0396,0.54544 0.0826,1.09878 0.13365,1.65476 0.0515,0.56155 0.10508,1.12708 0.16828,1.69971 0.0632,0.57181 0.12821,1.13929 0.20324,1.72247 0.198,0.28348 0.41311,0.55735 0.64088,0.8314 0.45755,0.55119 0.95891,1.07673 1.53024,1.58928 0.56839,0.50975 1.19623,1.00179 1.86767,1.47288 1.67855,1.17775 3.66674,2.23971 5.88712,3.17014 0.88815,0.37216 1.81663,0.7237 2.77502,1.05544 0.47921,0.16587 0.96392,0.32333 1.45892,0.479 0.99001,0.31135 2.01436,0.60147 3.0605,0.87165 2.09229,0.54036 4.27248,1.00028 6.53298,1.37306 0.006,6.3e-4 0.0122,-5.7e-4 0.0176,3e-4 0.83562,0.13763 1.68579,0.26073 2.53813,0.37496 -6.83692,-9.40375 -10.83925,-21.23895 -10.64307,-34.0376 0.2617,-17.07184 7.9258,-32.17756 19.68682,-41.95094 z"
         style="opacity:0.38114756;fill:#483e37;fill-opacity:1;fill-rule:evenodd;stroke:none" />
      <path
         sodipodi:nodetypes="ccscccccccccccccscc"
         inkscape:connector-curvature="0"
         id="path4023"
         d="m 331.63315,863.03424 c -0.47062,3.18395 -1.57712,4.54599 -2.03725,8.27597 -1.97473,9.44517 -3.27444,10.77219 -6.20141,18.857 -0.39329,1.08635 -0.79806,2.18807 -1.2353,3.37327 -0.54991,1.48791 -1.06242,2.859 -1.69522,4.56342 0.11185,0.17975 0.23547,0.35277 0.36292,0.5273 0.63721,0.8727 1.46355,1.68355 2.45371,2.42537 0.2007,0.15038 0.4155,0.29803 0.62917,0.44302 0.20802,0.14109 0.40977,0.28484 0.62953,0.42084 0.003,0.002 0.0145,-0.002 0.0176,2.9e-4 0.21981,0.13582 0.43406,0.26857 0.66519,0.39926 0.23754,0.13454 0.48692,0.26023 0.736,0.38933 0.24562,0.12729 0.47987,0.25624 0.73616,0.37825 0.004,10e-4 0.014,-0.001 0.0176,3e-4 0.25257,0.12008 0.50939,0.24171 0.77182,0.35666 0.47025,0.20627 0.95738,0.40027 1.45723,0.58987 2.91987,-5.12355 5.18814,-12.12338 6.13503,-19.91698 1.41529,-11.6491 1.43567,-20.51712 -2.51508,-25.52729 z"
         style="fill:#290000;fill-opacity:0.14509804;fill-rule:evenodd;stroke:none" />
      <path
         inkscape:connector-curvature="0"
         id="path4039"
         d="m 263.77133,813.35929 c 15.29105,-0.0912 27.69772,-10.82014 28.16479,-24.80778 0.46746,-13.99786 -11.19156,-26.18197 -26.43146,-28.09919 13.63442,3.72097 23.47971,15.07847 23.05175,27.89545 -0.42725,12.80659 -10.97394,22.93475 -24.78508,25.01152 z"
         style="fill:#d38d5f;fill-opacity:1;fill-rule:evenodd;stroke:none" />
      <text
         transform="matrix(1.0244165,0,-0.28614057,0.97616546,0,0)"
         sodipodi:linespacing="125%"
         id="text3073"
         y="861.67993"
         x="485.92545"
         style="font-size:25.73731422px;font-style:normal;font-weight:normal;line-height:125%;letter-spacing:0px;word-spacing:0px;fill:#ffffff;fill-opacity:1;stroke:none;font-family:Sans"
         xml:space="preserve"><tspan
           y="861.67993"
           x="485.92545"
           id="tspan3075"
           sodipodi:role="line">R</tspan></text>
    </g>
  </g>
</svg>
