<?xml version="1.0" encoding="UTF-8" standalone="no"?>
<!-- Created with Inkscape (http://www.inkscape.org/) -->

<svg
   xmlns:dc="http://purl.org/dc/elements/1.1/"
   xmlns:cc="http://creativecommons.org/ns#"
   xmlns:rdf="http://www.w3.org/1999/02/22-rdf-syntax-ns#"
   xmlns:svg="http://www.w3.org/2000/svg"
   xmlns="http://www.w3.org/2000/svg"
   xmlns:sodipodi="http://sodipodi.sourceforge.net/DTD/sodipodi-0.dtd"
   xmlns:inkscape="http://www.inkscape.org/namespaces/inkscape"
   width="220"
   height="220"
   id="svg2"
   version="1.1"
   inkscape:version="0.91 r13725"
   sodipodi:docname="EngineRocket3_hull.svg">
  <defs
     id="defs4" />
  <sodipodi:namedview
     id="base"
     pagecolor="#ffffff"
     bordercolor="#666666"
     borderopacity="1.0"
     inkscape:pageopacity="0.0"
     inkscape:pageshadow="2"
     inkscape:zoom="3.82"
     inkscape:cx="133.77355"
     inkscape:cy="128.59508"
     inkscape:document-units="px"
     inkscape:current-layer="layer1"
     showgrid="false"
     inkscape:window-width="1511"
     inkscape:window-height="1178"
     inkscape:window-x="353"
     inkscape:window-y="99"
     inkscape:window-maximized="0"
     fit-margin-top="10"
     fit-margin-left="10"
     fit-margin-bottom="10"
     fit-margin-right="10"
     width="49px" />
  <metadata
     id="metadata7">
    <rdf:RDF>
      <cc:Work
         rdf:about="">
        <dc:format>image/svg+xml</dc:format>
        <dc:type
           rdf:resource="http://purl.org/dc/dcmitype/StillImage" />
        <dc:title></dc:title>
      </cc:Work>
    </rdf:RDF>
  </metadata>
  <g
     inkscape:label="Layer 1"
     inkscape:groupmode="layer"
     id="layer1"
     transform="translate(-71.172907,-757.87433)">
    <g
       id="g4146"
       transform="translate(-9.162304,25.654451)">
      <path
         sodipodi:nodetypes="ccscscscscccccccsccccccccccscccccccscccscccscscscscccsccccccccccccccccccccccccccccccccccccccccccccccccccccccccccscc"
         inkscape:connector-curvature="0"
         id="path3242"
         d="m 181.34071,737.43038 c -2.42885,0.73305 -4.83825,1.71548 -7.19737,2.95369 -0.94367,0.49528 -1.88612,1.03224 -2.81341,1.60886 -1.85457,1.15322 -3.67869,2.47134 -5.44987,3.95159 -1.32844,1.1102 -2.61741,2.30992 -3.88717,3.60519 -4.23252,4.31757 -8.12394,9.66738 -11.46279,16.06474 -0.43915,0.77325 -0.87128,1.5653 -1.3016,2.36747 -0.33535,0.62515 -0.66094,1.25727 -0.99092,1.89925 -0.32052,0.62365 -0.64347,1.25122 -0.95892,1.89015 -0.0569,0.11525 -0.11474,0.22712 -0.17145,0.34285 -0.12055,0.24589 -0.23351,0.50184 -0.35326,0.74989 -0.0172,0.0353 -0.0423,0.0673 -0.0593,0.10266 -0.0978,0.20293 -0.18723,0.40345 -0.28453,0.60781 -0.20826,0.43737 -0.42242,0.8745 -0.62836,1.31826 -0.10735,0.23113 -0.21275,0.45844 -0.3194,0.69126 -0.009,0.0197 -0.0249,0.0389 -0.0339,0.0587 -0.16875,0.36883 -0.31906,0.74554 -0.48622,1.11854 -0.16903,0.37717 -0.35078,0.74631 -0.51819,1.12764 -0.18551,0.42233 -0.35645,0.85359 -0.53998,1.28088 -0.12507,0.29117 -0.24996,0.58493 -0.3741,0.87836 -0.005,0.01 -0.0127,0.0192 -0.0169,0.0293 -0.004,0.01 -0.0128,0.0194 -0.0169,0.0293 -0.12948,0.30636 -0.25509,0.60905 -0.38355,0.9178 -0.0595,0.14292 -0.12357,0.28842 -0.18282,0.43184 -0.0243,0.0589 -0.0379,0.11809 -0.0622,0.177 -0.18368,0.44607 -0.36881,0.89425 -0.55038,1.3451 -0.11605,0.28803 -0.23447,0.56922 -0.34966,0.85914 -0.0416,0.10474 -0.0735,0.20956 -0.11501,0.31454 -0.0635,0.16059 -0.12153,0.32024 -0.18475,0.4814 -0.009,0.0228 -0.0175,0.046 -0.0264,0.0688 -0.2621,0.66871 -0.5323,1.33557 -0.78985,2.01363 -0.0313,0.0824 -0.0574,0.16327 -0.0886,0.24576 -0.59384,1.56951 -1.18182,3.17138 -1.75157,4.7868 -0.0255,0.0722 -0.0462,0.14415 -0.0717,0.21644 -0.0304,0.0864 -0.0668,0.17393 -0.0971,0.26043 -0.51078,1.45803 -1.00908,2.93091 -1.5002,4.42123 -0.37893,1.1499 -0.74851,2.31176 -1.11567,3.47865 -0.14127,0.44896 -0.26893,0.90247 -0.40844,1.35375 -0.0361,0.11655 -0.0725,0.23273 -0.10847,0.34943 -0.4503,1.46312 -0.89439,2.93613 -1.32628,4.42079 -0.38238,1.31451 -0.75112,2.64111 -1.119,3.96973 -0.12951,0.46778 -0.26667,0.92945 -0.39439,1.39876 -0.0328,0.12051 -0.0683,0.23895 -0.10095,0.35956 -0.46697,1.72359 -0.92964,3.45329 -1.37219,5.19355 -0.46831,1.84152 -0.92145,3.69235 -1.3622,5.54606 -0.1421,0.59755 -0.27064,1.19689 -0.40984,1.79525 -0.31715,1.36323 -0.63176,2.72312 -0.93393,4.08865 -0.0673,0.30405 -0.12711,0.60871 -0.19365,0.9128 -0.3524,1.61051 -0.71044,3.22114 -1.04186,4.83003 -0.10731,0.52088 -0.20861,1.03921 -0.3137,1.55962 -0.23959,1.1864 -0.46371,2.37144 -0.69178,3.55415 -0.19393,1.00555 -0.39002,2.00474 -0.57559,3.00646 -0.13193,0.71223 -0.26368,1.42328 -0.39138,2.13311 -0.19504,1.08403 -0.39164,2.16228 -0.57677,3.23961 -0.18933,1.10177 -0.3603,2.19691 -0.53921,3.2902 -0.0771,0.47162 -0.15371,0.94314 -0.22895,1.41298 -0.24175,1.50975 -0.46737,3.00796 -0.68899,4.49686 -0.0511,0.34323 -0.11649,0.68562 -0.1665,1.02762 -0.20541,1.40443 -0.39425,2.79065 -0.58149,4.17221 -0.0569,0.41971 -0.11248,0.84336 -0.16769,1.26076 -0.20043,1.51567 -0.39237,3.01756 -0.57054,4.49994 -0.0293,0.24424 -0.0631,0.49357 -0.0919,0.73684 -0.0177,0.14972 -0.0319,0.30582 -0.0494,0.45516 -0.18374,1.5715 -0.35517,3.12818 -0.51335,4.65521 -0.16557,1.59801 -0.31489,3.16811 -0.45232,4.71138 -0.0744,0.83507 -0.14045,1.64272 -0.20652,2.46039 -0.0751,0.92885 -0.15377,1.85272 -0.2181,2.75775 -0.009,0.12244 -0.0135,0.23961 -0.022,0.3616 -0.0515,0.73755 -0.0877,1.44898 -0.13195,2.16961 -0.79739,12.86265 -0.25858,37.8819 6.17729,45.10099 0.18858,0.21312 0.3872,0.42188 0.58407,0.63037 0.0363,0.0388 0.0693,0.0783 0.10612,0.11685 0.31037,0.32483 0.6363,0.64913 0.96633,0.96276 0.0468,0.044 0.0906,0.0885 0.13735,0.13245 0.32484,0.30424 0.65016,0.60011 0.99278,0.89397 0.18343,0.15703 0.37048,0.31188 0.55887,0.46598 0.25965,0.21277 0.5285,0.42372 0.79748,0.63092 0.0431,0.0328 0.0875,0.0649 0.13053,0.0977 0.4143,0.31609 0.81688,0.62727 1.25216,0.93047 0.0211,0.0149 0.0481,0.0267 0.0695,0.0415 0.85665,0.59412 1.75181,1.16616 2.68403,1.71183 0.11328,0.0662 0.2258,0.13182 0.3401,0.19735 0.46079,0.26437 0.94689,0.51813 1.42436,0.77123 0.0346,0.0184 0.0658,0.0389 0.10054,0.0572 4.40025,2.31943 9.48967,4.17354 14.94136,5.62682 0.0844,0.0225 0.1739,0.039 0.25845,0.0613 -0.002,0.0246 2.46848,0.49062 2.46614,0.51522 10.14179,2.58832 41.9447,5.63146 71.08691,1.76223 10.08898,-1.90057 20.34002,-5.76651 26.17446,-11.4935 2.45887,-1.64523 2.69247,-4.34173 4.14283,-7.22167 4.2436,-14.9483 5.92759,-27.0164 4.64047,-39.82218 -0.61219,-28.55833 -7.4331,-67.65959 -18.11816,-99.78452 -0.31103,-0.93524 -0.61678,-1.87471 -0.93435,-2.7976 -0.16494,-0.47962 -0.33103,-0.95073 -0.49774,-1.42687 -0.1551,-0.4428 -0.30546,-0.88707 -0.46207,-1.32673 -0.19893,-0.55903 -0.3977,-1.11383 -0.59902,-1.66764 -0.12954,-0.3563 -0.26314,-0.69804 -0.39374,-1.05208 -0.46595,-1.26476 -0.92526,-2.50782 -1.40343,-3.74248 -0.20215,-0.52155 -0.40703,-1.038 -0.61134,-1.55385 -0.10567,-0.267 -0.21071,-0.52667 -0.31692,-0.7921 -0.2393,-0.59763 -0.47893,-1.19047 -0.72112,-1.77996 -0.0725,-0.17696 -0.14369,-0.3504 -0.21659,-0.52655 -0.62986,-1.52172 -1.26374,-3.01699 -1.91217,-4.48004 -0.26088,-0.62944 -0.53566,-1.23997 -0.81319,-1.8518 -0.55499,-1.22366 -1.13997,-2.41559 -1.75802,-3.56811 -0.62004,-1.15629 -1.26966,-2.27087 -1.94815,-3.35475 -0.3381,-0.54027 -0.67699,-1.07234 -1.02868,-1.59445 -1.05748,-1.57023 -2.17472,-3.04846 -3.34371,-4.45275 -0.38881,-0.46702 -0.77189,-0.9215 -1.17181,-1.36995 -1.19662,-1.34197 -2.44858,-2.60439 -3.73384,-3.77815 -0.003,-0.004 -0.005,-0.007 -0.007,-0.0101 -0.85941,-0.7841 -1.73164,-1.5232 -2.62428,-2.2312 -7.58641,-6.01962 -16.30008,-9.27044 -24.60789,-9.49445 -3.90961,-0.1054 -7.8429,0.42291 -11.72905,1.59579 z"
         style="fill:#1a1a1a;fill-rule:evenodd;stroke:#1a1a1a;stroke-width:4.47862816" />
      <path
         sodipodi:nodetypes="sccccssccs"
         inkscape:connector-curvature="0"
         id="rect3011"
         d="m 193.0776,735.83564 c -15.63834,-0.42162 -31.8522,9.30956 -42.53653,29.78113 -25.02881,44.07096 -35.73866,136.20659 -28.46053,150.5641 9.74709,19.54058 40.73671,29.96629 70.17275,30.16847 0.89199,0.006 1.79554,0.003 2.68536,-0.0108 7.11879,-0.10396 14.15247,-0.82086 20.79065,-2.1717 0.82978,-0.16886 1.64686,-0.34704 2.46376,-0.53574 17.15508,-3.96268 27.61646,-11.65602 39.03608,-24.84306 9.02555,-26.26583 -2.36905,-104.42604 -23.12047,-151.24308 -8.34664,-20.14252 -25.39274,-31.28772 -41.03107,-31.70934 z"
         style="fill:#ffffff;fill-rule:evenodd;stroke:none" />
      <path
         sodipodi:nodetypes="cscccccc"
         inkscape:connector-curvature="0"
         id="path3040"
         d="m 259.24889,912.4645 c -19.92336,9.69046 -46.47028,15.21022 -71.34129,14.7964 -24.83439,-0.41321 -47.95452,-6.55227 -67.55223,-16.87305 0.1532,2.0174 0.31417,4.04328 0.49823,6.09719 -0.39769,25.94423 40.58644,32.67812 70.46239,32.88761 0.90533,0.006 1.82237,0.003 2.72551,-0.0101 28.56062,0.004 63.42346,-4.04169 63.9543,-30.34792 0.28363,-2.20396 1.04182,-4.59605 1.25309,-6.55013 z"
         style="fill:#333333;fill-opacity:1;fill-rule:evenodd;stroke:none" />
      <path
         inkscape:connector-curvature="0"
         id="path3964"
         d="m 193.07607,735.83403 c -15.63834,-0.42163 -31.85219,9.30956 -42.53652,29.78113 -3.51969,6.19747 -6.76084,13.35126 -9.70399,21.09979 12.99352,7.94747 30.89095,13.02451 50.7259,13.35453 19.59064,0.32597 37.44368,-4.03542 50.62805,-11.37978 -2.49488,-7.50202 -5.19805,-14.62774 -8.08487,-21.14068 -8.34666,-20.14253 -25.39025,-31.29337 -41.02857,-31.71499 z"
         style="fill:#483e37;fill-opacity:1;fill-rule:evenodd;stroke:none" />
      <path
         sodipodi:nodetypes="cccccccc"
         inkscape:connector-curvature="0"
         id="path3981"
         d="m 193.07607,735.83403 c -15.63834,-0.42163 -31.85219,9.30956 -42.53652,29.78113 -22.77577,40.10376 -33.69456,120.00095 -29.9915,144.88046 -0.0651,-0.0342 -0.12775,-0.0688 -0.19279,-0.103 0.1532,2.01739 0.30546,4.04312 0.48953,6.09705 -0.2793,18.21996 19.86595,26.95143 42.22904,30.61477 -7.97991,-22.98686 -10.08932,-49.25365 -12.01153,-81.90649 -0.37841,-60.84431 12.77891,-114.99096 42.01374,-129.3639 z"
         style="opacity:0.3688525;fill:#917c6f;fill-rule:evenodd;stroke:none" />
      <ellipse
         ry="13.685852"
         rx="14.376646"
         transform="matrix(0.9996817,0.02522889,-9.4621095e-4,0.99999955,0,0)"
         id="path3970"
         style="fill:#6c5353;fill-opacity:1;stroke:none"
         cx="189.90388"
         cy="872.8349" />
      <ellipse
         ry="26.545311"
         rx="29.536488"
         transform="matrix(0.99964958,0.02647112,3.6068874e-4,0.99999993,0,0)"
         id="path3014"
         style="fill:#a05a2c;fill-opacity:1;fill-rule:evenodd;stroke:none"
         cx="189.10957"
         cy="827.49731" />
      <ellipse
         ry="19.905777"
         rx="21.351183"
         transform="matrix(0.99964958,0.02647113,3.6067746e-4,0.99999993,0,0)"
         id="path4033"
         style="fill:#1a1a1a;fill-rule:evenodd;stroke:none"
         cx="190.53056"
         cy="827.82703" />
      <ellipse
         ry="19.462255"
         rx="21.351183"
         style="fill:#666666;fill-rule:evenodd;stroke:none"
         id="path4035"
         transform="matrix(0.99964958,0.02647113,3.6067635e-4,0.99999993,0,0)"
         cx="187.68866"
         cy="827.76367" />
      <ellipse
         ry="19.188936"
         rx="21.351183"
         style="fill:#ffffff;fill-rule:evenodd;stroke:none"
         id="path3022"
         transform="matrix(0.99964958,0.02647113,3.6070318e-4,0.99999993,0,0)"
         cx="189.10959"
         cy="827.81982" />
      <path
         inkscape:connector-curvature="0"
         id="path4039"
         d="m 190.66404,858.95981 c 15.29105,-0.0912 27.69772,-10.82014 28.16479,-24.80778 0.46746,-13.99786 -11.19156,-26.18197 -26.43146,-28.09919 13.63442,3.72097 23.47971,15.07847 23.05175,27.89545 -0.42725,12.80659 -10.97394,22.93475 -24.78508,25.01152 z"
         style="fill:#d38d5f;fill-opacity:1;fill-rule:evenodd;stroke:none" />
      <text
         transform="matrix(1.0244165,0,-0.28614057,0.97616546,0,0)"
         sodipodi:linespacing="125%"
         id="text3073"
         y="908.39386"
         x="427.6088"
         style="font-style:normal;font-weight:normal;font-size:25.73731422px;line-height:125%;font-family:Sans;letter-spacing:0px;word-spacing:0px;fill:#ffffff;fill-opacity:1;stroke:none"
         xml:space="preserve"><tspan
           y="908.39386"
           x="427.6088"
           id="tspan3075"
           sodipodi:role="line">R</tspan></text>
    </g>
  </g>
</svg>
