<?xml version="1.0" encoding="UTF-8" standalone="no"?>
<svg
   xmlns:i="&amp;#38;ns_ai;"
   xmlns:dc="http://purl.org/dc/elements/1.1/"
   xmlns:cc="http://creativecommons.org/ns#"
   xmlns:rdf="http://www.w3.org/1999/02/22-rdf-syntax-ns#"
   xmlns:svg="http://www.w3.org/2000/svg"
   xmlns="http://www.w3.org/2000/svg"
   xmlns:sodipodi="http://sodipodi.sourceforge.net/DTD/sodipodi-0.dtd"
   xmlns:inkscape="http://www.inkscape.org/namespaces/inkscape"
   version="1.1"
   id="svg557"
   x="0px"
   y="0px"
   width="744.094px"
   height="496.063px"
   viewBox="0 0 744.094 496.063"
   enable-background="new 0 0 744.094 496.063"
   xml:space="preserve"
   inkscape:version="0.48.5 r10040"
   sodipodi:docname="Pirate_Skull_And_Bones.svg"><metadata
     id="metadata15"><rdf:RDF><cc:Work
         rdf:about=""><dc:format>image/svg+xml</dc:format><dc:type
           rdf:resource="http://purl.org/dc/dcmitype/StillImage" /></cc:Work></rdf:RDF></metadata><defs
     id="defs13" /><sodipodi:namedview
     pagecolor="#ffffff"
     bordercolor="#666666"
     borderopacity="1"
     objecttolerance="10"
     gridtolerance="10"
     guidetolerance="10"
     inkscape:pageopacity="0"
     inkscape:pageshadow="2"
     inkscape:window-width="1497"
     inkscape:window-height="1162"
     id="namedview11"
     showgrid="false"
     inkscape:zoom="2.26"
     inkscape:cx="187.34455"
     inkscape:cy="248.03149"
     inkscape:window-x="0"
     inkscape:window-y="0"
     inkscape:window-maximized="0"
     inkscape:current-layer="svg557" /><g
     id="g5"
     i:extraneous="self"
     transform="translate(-450.33124,106.63234)"><path
       id="path2999"
       d="m 1048.0822,68.685927 c -9.552,-13.625 -26.322,-19.325 -40.83,-14.648 -0.095,-4.448 -1.367,-8.961 -3.952,-13.056 -7.31603,-11.588 -22.25803,-15.37 -33.36103,-8.423 -11.103,6.947 -14.186,21.984 -6.869,33.572 l 0.095,0.172 c 0.316,0.494 0.668,0.958 1.011,1.422 -1.154,0.595 -2.295,1.283 -3.399,2.049 l -311.3,216.012003 c -11.598,-16.115 -33.192,-20.794 -48.839,-10.401 -15.987,10.615 -19.721,32.954 -8.339,49.888 9.74,14.491 27.405,20.341 42.318,15.072 0.218,4.446 1.609,8.929 4.31,12.952 7.637,11.378 22.699,14.721 33.605,7.467 10.905,-7.255 13.551,-22.367 5.915,-33.746 l -0.112,-0.16 c -0.953,-1.397 -2.017,-2.667 -3.171,-3.814 l 311.411,-216.091 c 0.849,-0.59 1.657,-1.219 2.422,-1.873 0.375,0.678 0.75,1.364 1.169,2.028 l 0.158,0.226 c 10.97303,17.086 32.89303,22.707 49.09103,12.591 16.277,-10.165 20.625,-32.409003 9.72,-49.654003 -0.341,-0.539 -0.691,-1.069 -1.053,-1.585 z"
       inkscape:connector-curvature="0"
       style="fill:#ac9d93;stroke:#ffffff;stroke-width:10.00000024;stroke-miterlimit:4;stroke-dasharray:none;stroke-opacity:1" /><path
       id="path3001"
       d="m 582.29735,66.781773 c 9.554,-13.625 26.325,-19.325 40.832,-14.648 0.095,-4.448 1.367,-8.961 3.952,-13.056 7.316,-11.588 22.258,-15.37 33.362,-8.423 11.104,6.947 14.186,21.984 6.869,33.572 l -0.095,0.172 c -0.317,0.494 -0.668,0.958 -1.011,1.422 1.154,0.595 2.295,1.283 3.399,2.049 l 311.298,216.011997 c 11.598,-16.115 33.19195,-20.794 48.83995,-10.401 15.986,10.615 19.721,32.954 8.34,49.888 -9.742,14.491 -27.406,20.341 -42.31995,15.072 -0.217,4.446 -1.608,8.929 -4.308,12.952 -7.639,11.378 -22.7,14.721 -33.605,7.467 -10.906,-7.255 -13.552,-22.367 -5.915,-33.746 l 0.112,-0.16 c 0.951,-1.397 2.015,-2.667 3.17,-3.814 l -311.411,-216.091 c -0.85,-0.59 -1.658,-1.219 -2.423,-1.873 -0.375,0.678 -0.75,1.364 -1.169,2.028 l -0.156,0.226 c -10.974,17.086 -32.894,22.707 -49.093,12.591 -16.275,-10.165 -20.623,-32.408997 -9.718,-49.653997 0.339,-0.539 0.688,-1.069 1.05,-1.585 z"
       inkscape:connector-curvature="0"
       style="fill:#ac9d93;stroke:#ffffff;stroke-width:10.00000024;stroke-miterlimit:4;stroke-dasharray:none;stroke-opacity:1" /><path
       id="path2997"
       d="m 813.71664,-75.419642 c -67.777,0.349 -124.152,53.109 -127.268,120.622 -1.992,43.161 18.272,82.268002 50.763,106.544002 0.003,0.002 -0.003,0.018 0,0.02 l 1.02,42.723 c 0,14.401 10.902,25.979 24.45,25.979 13.547,0 24.449,-11.578 24.449,-25.979 l -0.49,-20.155 c 0.863,0.188 1.739,0.378 2.608,0.549 -0.03,0.535 -0.059,1.065 -0.059,1.608 v 17.509 c 0,14.4 10.922,26 24.469,26 13.547,0 24.45,-11.6 24.45,-26 v -17.509 c 0,-0.438 -0.018,-0.863 -0.039,-1.294 0.722,-0.132 1.441,-0.268 2.157,-0.412 l 0.451,19.215 c 0,14.4 10.903,26 24.449,26 13.547,0 24.449,-11.6 24.449,-26 l -0.96,-39.939 c 31.09,-21.766 52.053,-56.912002 53.919,-97.349002 3.217,-69.69 -51.531,-128.842 -122.21,-132.014 -2.209,-0.1 -4.421,-0.13 -6.608,-0.118 z m 40.763,121.7 c 0.506,-0.003 1.018,-0.005 1.529,0.02 16.36,0.799 29.037,15.709 28.292,33.273 -0.74,17.48 -14.476,31.036002 -30.762,30.372002 h -0.217 c -16.358,-0.799 -29.037,-15.709002 -28.292,-33.273002 0.723,-17.016 13.763,-30.305 29.45,-30.392 z m -78.937,22.92 c 0.357,-0.002 0.718,0.004 1.078,0.02 11.543,0.507 20.486,9.957 19.96,21.097 -0.523,11.087002 -10.214,19.694002 -21.705,19.273002 h -0.157 c -11.542,-0.507 -20.485,-9.956002 -19.96,-21.097002 0.509,-10.792 9.716,-19.237 20.784,-19.293 z"
       inkscape:connector-curvature="0"
       style="fill:#ffcc00;stroke:#231f20;stroke-width:10.00000024;stroke-miterlimit:4;stroke-dasharray:none" /><path
       id="path3003"
       d="m 838.50957,228.67229 c -13.547,0 -24.451,11.598 -24.451,25.999 v 0.98 h -2.039 v -0.294 c 0,-14.4 -10.902,-26 -24.45,-26 -13.546,0 -24.45,11.6 -24.45,26 v 17.509 c 0,3.308 0.576,6.467 1.627,9.372 2.218,9.816 12.77,17.214 25.547,17.214 h 41.076 c 3.287,0 6.426,-0.498 9.313,-1.393 12.52,-1.163 22.273,-12.26 22.273,-25.879 v -17.51 c 0.003,-14.4 -10.901,-25.998 -24.446,-25.998 z"
       inkscape:connector-curvature="0"
       style="fill:#ffcc00;stroke:#231f20;stroke-width:10.00000024;stroke-miterlimit:4;stroke-dasharray:none" /></g></svg>