<?xml version="1.0" encoding="UTF-8" standalone="no"?>
<!-- Generated by IcoMoon.io -->

<svg
   xmlns:dc="http://purl.org/dc/elements/1.1/"
   xmlns:cc="http://creativecommons.org/ns#"
   xmlns:rdf="http://www.w3.org/1999/02/22-rdf-syntax-ns#"
   xmlns:svg="http://www.w3.org/2000/svg"
   xmlns="http://www.w3.org/2000/svg"
   xmlns:xlink="http://www.w3.org/1999/xlink"
   xmlns:sodipodi="http://sodipodi.sourceforge.net/DTD/sodipodi-0.dtd"
   xmlns:inkscape="http://www.inkscape.org/namespaces/inkscape"
   version="1.1"
   width="32"
   height="32"
   viewBox="0 0 32 32"
   id="svg2"
   inkscape:version="0.48.5 r10040"
   sodipodi:docname="rocket3.svg">
  <metadata
     id="metadata13">
    <rdf:RDF>
      <cc:Work
         rdf:about="">
        <dc:format>image/svg+xml</dc:format>
        <dc:type
           rdf:resource="http://purl.org/dc/dcmitype/StillImage" />
        <dc:title></dc:title>
      </cc:Work>
    </rdf:RDF>
  </metadata>
  <defs
     id="defs11">
    <linearGradient
       id="linearGradient3858">
      <stop
         style="stop-color:#9a5fd3;stop-opacity:1;"
         offset="0"
         id="stop3860" />
      <stop
         style="stop-color:#330e0e;stop-opacity:0;"
         offset="1"
         id="stop3862" />
    </linearGradient>
    <linearGradient
       id="linearGradient3850">
      <stop
         style="stop-color:#a65fd3;stop-opacity:1;"
         offset="0"
         id="stop3852" />
      <stop
         style="stop-color:#441313;stop-opacity:0.25416666;"
         offset="1"
         id="stop3854" />
    </linearGradient>
    <linearGradient
       inkscape:collect="always"
       xlink:href="#linearGradient3858"
       id="linearGradient3898"
       gradientUnits="userSpaceOnUse"
       x1="21.731886"
       y1="28.210436"
       x2="19.563362"
       y2="29.556078" />
    <linearGradient
       inkscape:collect="always"
       xlink:href="#linearGradient3850"
       id="linearGradient3901"
       gradientUnits="userSpaceOnUse"
       x1="10.81409"
       y1="27.801275"
       x2="12.837111"
       y2="29.205429" />
  </defs>
  <sodipodi:namedview
     pagecolor="#ffffff"
     bordercolor="#666666"
     borderopacity="1"
     objecttolerance="10"
     gridtolerance="10"
     guidetolerance="10"
     inkscape:pageopacity="0"
     inkscape:pageshadow="2"
     inkscape:window-width="1673"
     inkscape:window-height="1331"
     id="namedview9"
     showgrid="false"
     inkscape:zoom="17.09217"
     inkscape:cx="19.503706"
     inkscape:cy="16.160213"
     inkscape:window-x="0"
     inkscape:window-y="0"
     inkscape:window-maximized="0"
     inkscape:current-layer="svg2" />
  <path
     style="fill:url(#linearGradient3901);fill-opacity:1;stroke:#000000;stroke-width:0.93646824;stroke-opacity:1"
     d="M 11.070118,31.204456 C 10.221359,31.20352 9.6645446,29.133691 9.1759052,27.960942 8.3365955,25.946552 7.6471208,24.25059 7.5977127,23.072082 c -0.079131,-1.888566 3.5181233,-4.40761 3.5181233,-4.40761 l 2.423168,8.612727 c 0,0 -0.569991,1.256422 -1.038028,2.260999 -0.468038,1.004587 -0.582109,1.667204 -1.430858,1.666258 z"
     id="path2990"
     inkscape:connector-curvature="0"
     sodipodi:nodetypes="zssccsz" />
  <path
     sodipodi:nodetypes="zssccsz"
     inkscape:connector-curvature="0"
     id="path3760"
     d="m 21.664767,31.309294 c 0.848759,-9.27e-4 1.350369,-2.029355 1.839008,-3.202113 0.839319,-2.01439 1.480266,-3.599596 1.440204,-4.77847 -0.07258,-2.136945 -3.662948,-4.652833 -3.662948,-4.652833 l -2.181747,8.609571 c 0,0 0.63899,1.353019 1.107018,2.357596 0.468038,1.004587 0.609707,1.667204 1.458465,1.666249 z"
     style="fill:url(#linearGradient3898);fill-opacity:1;stroke:#000000;stroke-width:0.93646824;stroke-opacity:1" />
  <path
     style="fill:#ffad3a;stroke:#000000;stroke-width:0.28094047000000000;stroke-miterlimit:4;stroke-opacity:1;stroke-dasharray:none;fill-opacity:1"
     d="m 11.102005,18.586127 c -0.456838,-2.51024 -0.511883,-5.01387 -0.275978,-7.506636 0.193849,-2.0483739 0.458383,-4.1225012 1.3247,-5.9887513 0.793198,-1.7087268 2.779092,-4.73221757 3.836111,-4.7468452 0.972701,-0.0134851 3.046837,2.8529973 3.974109,4.7744429 1.008727,2.0902533 1.328886,3.6364654 1.543712,5.9474256 0.199402,2.14499 0.09418,5.732094 -0.219012,7.603157 -0.28522,1.703961 -3.965212,1.042346 -5.160811,1.876664 -1.300286,-0.848768 -4.701052,-0.19133 -5.022831,-1.959457 z"
     id="path3762"
     inkscape:connector-curvature="0"
     sodipodi:nodetypes="ssssssscs" />
  <path
     style="fill:#7e95b8;fill-opacity:1;stroke:#000000;stroke-width:0.37458730000000001;stroke-miterlimit:4;stroke-opacity:1;stroke-dasharray:none"
     d="m 11.119872,18.65816 2.397771,8.612661 5.574777,0.02763 2.204437,-8.619844 z"
     id="path3764"
     inkscape:connector-curvature="0"
     sodipodi:nodetypes="ccccc" />
  <path
     sodipodi:type="arc"
     style="fill:#c04040;fill-opacity:1;stroke:#000000;stroke-width:0.10000000000000001;stroke-miterlimit:4;stroke-opacity:1;stroke-dasharray:none"
     id="path3776"
     sodipodi:cx="6.7537751"
     sodipodi:cy="9.4774981"
     sodipodi:rx="1.4281111"
     sodipodi:ry="1.4281111"
     d="m 8.1818862,9.4774981 a 1.4281111,1.4281111 0 1 1 -2.8562222,0 1.4281111,1.4281111 0 1 1 2.8562222,0 z"
     transform="matrix(0.93646825,0,0,0.93646825,9.8210659,-0.74649169)" />
  <rect
     style="fill:#e8e06c;fill-opacity:1;stroke:#000000;stroke-width:0.09364682000000001;stroke-linecap:round;stroke-linejoin:miter;stroke-miterlimit:4;stroke-opacity:1;stroke-dasharray:none"
     id="rect3778"
     width="1.761906"
     height="0.93968326"
     x="15.236166"
     y="10.250062" />
</svg>
