<?xml version="1.0" encoding="UTF-8" standalone="no"?>
<!-- License Agreement at http://iconmonstr.com/license/ -->

<svg
   xmlns:osb="http://www.openswatchbook.org/uri/2009/osb"
   xmlns:dc="http://purl.org/dc/elements/1.1/"
   xmlns:cc="http://creativecommons.org/ns#"
   xmlns:rdf="http://www.w3.org/1999/02/22-rdf-syntax-ns#"
   xmlns:svg="http://www.w3.org/2000/svg"
   xmlns="http://www.w3.org/2000/svg"
   xmlns:xlink="http://www.w3.org/1999/xlink"
   xmlns:sodipodi="http://sodipodi.sourceforge.net/DTD/sodipodi-0.dtd"
   xmlns:inkscape="http://www.inkscape.org/namespaces/inkscape"
   version="1.1"
   x="0px"
   y="0px"
   width="295"
   height="466"
   viewBox="0 0 295 465.99999"
   enable-background="new 0 0 512 512"
   xml:space="preserve"
   id="svg2"
   inkscape:version="0.48.5 r10040"
   sodipodi:docname="Lander1.svg"><metadata
     id="metadata9"><rdf:RDF><cc:Work
         rdf:about=""><dc:format>image/svg+xml</dc:format><dc:type
           rdf:resource="http://purl.org/dc/dcmitype/StillImage" /><dc:title /></cc:Work></rdf:RDF></metadata><defs
     id="defs7"><linearGradient
       inkscape:collect="always"
       id="linearGradient5349"><stop
         style="stop-color:#000000;stop-opacity:1;"
         offset="0"
         id="stop5351" /><stop
         style="stop-color:#000000;stop-opacity:0;"
         offset="1"
         id="stop5353" /></linearGradient><linearGradient
       id="linearGradient5319"
       osb:paint="gradient"><stop
         style="stop-color:#d4aa00;stop-opacity:1;"
         offset="0"
         id="stop5321" /><stop
         style="stop-color:#d4aa00;stop-opacity:0;"
         offset="1"
         id="stop5323" /></linearGradient><linearGradient
       id="linearGradient3784"><stop
         style="stop-color:#6c5353;stop-opacity:1;"
         offset="0"
         id="stop3786" /><stop
         style="stop-color:#ece6e6;stop-opacity:1;"
         offset="1"
         id="stop3788" /></linearGradient><linearGradient
       id="linearGradient3768"><stop
         style="stop-color:#4e00d8;stop-opacity:1;"
         offset="0"
         id="stop3770" /><stop
         style="stop-color:#ff3d0b;stop-opacity:0.52136755;"
         offset="1"
         id="stop3772" /></linearGradient><linearGradient
       inkscape:collect="always"
       xlink:href="#linearGradient3784"
       id="linearGradient5734"
       gradientUnits="userSpaceOnUse"
       x1="252.44443"
       y1="434.95105"
       x2="251.91667"
       y2="453.00662" /><linearGradient
       inkscape:collect="always"
       xlink:href="#linearGradient3768"
       id="linearGradient5736"
       gradientUnits="userSpaceOnUse"
       x1="232.83331"
       y1="200.88889"
       x2="303.27777"
       y2="200.88889" /><linearGradient
       inkscape:collect="always"
       xlink:href="#linearGradient3768"
       id="linearGradient5738"
       gradientUnits="userSpaceOnUse"
       x1="263.38889"
       y1="292.20834"
       x2="303.9722"
       y2="292.20834" /><linearGradient
       inkscape:collect="always"
       xlink:href="#linearGradient5349"
       id="linearGradient5740"
       gradientUnits="userSpaceOnUse"
       x1="221.72221"
       y1="336.30554"
       x2="244.94444"
       y2="336.30554" /></defs><sodipodi:namedview
     pagecolor="#ffffff"
     bordercolor="#666666"
     borderopacity="1"
     objecttolerance="10"
     gridtolerance="10"
     guidetolerance="10"
     inkscape:pageopacity="0"
     inkscape:pageshadow="2"
     inkscape:window-width="1530"
     inkscape:window-height="1238"
     id="namedview5"
     showgrid="false"
     inkscape:zoom="1.44"
     inkscape:cx="297.86335"
     inkscape:cy="214.31092"
     inkscape:window-x="576"
     inkscape:window-y="22"
     inkscape:window-maximized="0"
     inkscape:current-layer="svg2"
     width="295px" /><g
     id="g5724"
     transform="translate(-109.79865,-48.777783)"><path
       style="fill:#ac9393;stroke:#ee8228;stroke-opacity:1"
       sodipodi:nodetypes="cccccccc"
       inkscape:connector-curvature="0"
       d="m 403.22222,462 c 3.19779,-57 -16.94682,-126.66661 -32.833,-147.333 -4.833,25.333 -17.917,63.333 -27.167,81.124 39.25,8.959 55.334,33.209 60,66.209 z m -240,-66.209 c -9.25,-17.791 -22.334,-55.791 -27.167,-81.124 -15.88618,17.30279 -26.6531,92.24701 -25.69772,148.12581 4.666,-33 13.61472,-58.04281 52.86472,-67.00181 z"
       id="rocket-icon" /><path
       sodipodi:type="arc"
       style="fill:#aad400;fill-opacity:1;stroke:none"
       id="path5722"
       sodipodi:cx="252.77777"
       sodipodi:cy="490.47223"
       sodipodi:rx="22.916668"
       sodipodi:ry="45.138889"
       d="m 275.69444,490.47223 c 0,24.92952 -10.26014,45.13889 -22.91667,45.13889 -12.65653,0 -22.91667,-20.20937 -22.91667,-45.13889 0,-24.92952 10.26014,-45.13889 22.91667,-45.13889 12.65653,0 22.91667,20.20937 22.91667,45.13889 z"
       transform="translate(0,-20.833333)" /><path
       transform="translate(0,-36.805555)"
       d="m 272.22222,490.47223 c 0,17.2589 -8.70558,31.25 -19.44445,31.25 -10.73887,0 -19.44444,-13.9911 -19.44444,-31.25 0,-17.2589 8.70557,-31.25 19.44444,-31.25 10.73887,0 19.44445,13.9911 19.44445,31.25 z"
       sodipodi:ry="31.249998"
       sodipodi:rx="19.444445"
       sodipodi:cy="490.47223"
       sodipodi:cx="252.77777"
       id="path5720"
       style="fill:#d4ff2a;fill-opacity:1;stroke:none"
       sodipodi:type="arc" /><path
       style="fill:url(#linearGradient5734);fill-opacity:1;stroke:#170b02;stroke-opacity:1"
       sodipodi:nodetypes="ccccc"
       inkscape:connector-curvature="0"
       d="m 277.72222,451.63889 -49,0 -16.75,-29.209 82.5,0 z"
       id="path2990" /><path
       style="fill:#ffccaa;stroke:#361aed;stroke-opacity:1"
       sodipodi:nodetypes="cccc"
       inkscape:connector-curvature="0"
       d="m 310.91678,394.94501 -116.667,0 c -45.112,-89.626 -65.469,-239.24701 58.029,-344.945009 124.359,104.999999 103.847,250.820009 58.638,344.945009 z"
       id="path2992" /><path
       transform="translate(-14.833321,-31.25)"
       d="m 302.77776,200.88889 c 0,19.17655 -15.54566,34.72222 -34.72222,34.72222 -19.17655,0 -34.72222,-15.54567 -34.72222,-34.72222 0,-19.17656 15.54567,-34.72223 34.72222,-34.72223 19.17656,0 34.72222,15.54567 34.72222,34.72223 z"
       sodipodi:ry="34.722221"
       sodipodi:rx="34.722221"
       sodipodi:cy="200.88889"
       sodipodi:cx="268.05554"
       id="path2994"
       style="fill:url(#linearGradient5736);fill-opacity:1;stroke:#c500b2;stroke-width:1;stroke-linecap:round;stroke-linejoin:miter;stroke-miterlimit:2;stroke-opacity:1;stroke-dasharray:none"
       sodipodi:type="arc" /><path
       transform="translate(-31.499987,-63.888889)"
       d="m 303.47221,292.20834 c 0,10.93064 -8.86103,19.79167 -19.79167,19.79167 -10.93063,0 -19.79166,-8.86103 -19.79166,-19.79167 0,-10.93063 8.86103,-19.79166 19.79166,-19.79166 10.93064,0 19.79167,8.86103 19.79167,19.79166 z"
       sodipodi:ry="19.791666"
       sodipodi:rx="19.791666"
       sodipodi:cy="292.20834"
       sodipodi:cx="283.68054"
       id="path2996"
       style="fill:url(#linearGradient5738);fill-opacity:1;stroke:#05261a;stroke-width:1;stroke-linecap:round;stroke-linejoin:miter;stroke-miterlimit:2;stroke-opacity:1;stroke-dasharray:none"
       sodipodi:type="arc" /><path
       transform="translate(18.75,-29.166667)"
       d="m 244.44444,336.30554 c 0,6.1365 -4.97461,11.11111 -11.11111,11.11111 -6.1365,0 -11.11111,-4.97461 -11.11111,-11.11111 0,-6.13649 4.97461,-11.11111 11.11111,-11.11111 6.1365,0 11.11111,4.97462 11.11111,11.11111 z"
       sodipodi:ry="11.111111"
       sodipodi:rx="11.111111"
       sodipodi:cy="336.30554"
       sodipodi:cx="233.33333"
       id="path2998"
       style="fill:url(#linearGradient5740);fill-opacity:1;stroke:#095974;stroke-width:1;stroke-linecap:round;stroke-linejoin:miter;stroke-miterlimit:2;stroke-opacity:1;stroke-dasharray:none"
       sodipodi:type="arc" /></g></svg>