<?xml version="1.0" encoding="UTF-8" standalone="no"?>
<!-- License Agreement at http://iconmonstr.com/license/ -->

<svg
   xmlns:dc="http://purl.org/dc/elements/1.1/"
   xmlns:cc="http://creativecommons.org/ns#"
   xmlns:rdf="http://www.w3.org/1999/02/22-rdf-syntax-ns#"
   xmlns:svg="http://www.w3.org/2000/svg"
   xmlns="http://www.w3.org/2000/svg"
   xmlns:sodipodi="http://sodipodi.sourceforge.net/DTD/sodipodi-0.dtd"
   xmlns:inkscape="http://www.inkscape.org/namespaces/inkscape"
   version="1.1"
   x="0px"
   y="0px"
   width="512px"
   height="512px"
   viewBox="0 0 512 512"
   style="enable-background:new 0 0 512 512;"
   xml:space="preserve"
   id="svg2"
   inkscape:version="0.91 r13725"
   sodipodi:docname="medal.svg"><metadata
     id="metadata9"><rdf:RDF><cc:Work
         rdf:about=""><dc:format>image/svg+xml</dc:format><dc:type
           rdf:resource="http://purl.org/dc/dcmitype/StillImage" /><dc:title></dc:title></cc:Work></rdf:RDF></metadata><defs
     id="defs7" /><sodipodi:namedview
     pagecolor="#ffffff"
     bordercolor="#666666"
     borderopacity="1"
     objecttolerance="10"
     gridtolerance="10"
     guidetolerance="10"
     inkscape:pageopacity="0"
     inkscape:pageshadow="2"
     inkscape:window-width="1908"
     inkscape:window-height="1323"
     id="namedview5"
     showgrid="false"
     inkscape:zoom="0.91"
     inkscape:cx="256"
     inkscape:cy="209.48837"
     inkscape:window-x="0"
     inkscape:window-y="0"
     inkscape:window-maximized="0"
     inkscape:current-layer="g4145" /><g
     id="g4145"
     transform="translate(-0.255814,-13.046512)"><g
       id="g4156"><path
         transform="translate(0.255814,13.046512)"
         style="enable-background:new 0 0 512 512;fill:#277b33;fill-opacity:1;stroke:#000000;stroke-opacity:1"
         sodipodi:nodetypes="ccccc"
         inkscape:connector-curvature="0"
         d="M 363.225,50 310.854,101.5 204.5,101.5 147.971,50 Z"
         id="medal-12" /><path
         transform="translate(0.255814,13.046512)"
         style="enable-background:new 0 0 512 512;fill:#549ae4;fill-opacity:1;stroke:#000000;stroke-opacity:1"
         id="path4139"
         d="m 126.65202,78.258209 -30.058997,45.079011 89.856997,136.403 c 16.026,-8.6 33.981,-14.04 53.009,-15.649 z"
         inkscape:connector-curvature="0"
         sodipodi:nodetypes="ccccc" /><path
         transform="translate(0.255814,13.046512)"
         style="enable-background:new 0 0 512 512;fill:#549ae4;fill-opacity:1;stroke:#000000;stroke-opacity:1"
         sodipodi:nodetypes="ccccc"
         inkscape:connector-curvature="0"
         d="m 389.10352,77.919022 -113.395,166.376998 c 19.095,1.484 37.1,6.815 53.227,15.331 l 90.611,-136.034 z"
         id="path4141" /><g
         transform="translate(0,-2)"
         id="g4149"><path
           style="fill:#d61492;fill-opacity:1;stroke:#000000;stroke-opacity:1"
           sodipodi:nodetypes="ssssscccccccc"
           inkscape:connector-curvature="0"
           id="path4137"
           d="m 258.32558,319.40376 c -37.871,0 -68.667,30.812 -68.667,68.666 0,37.854 30.796,68.666 68.667,68.666 37.871,0 68.666,-30.812 68.666,-68.666 0,-37.854 -30.795,-68.666 -68.666,-68.666 z m 17.166,103 -17.166,0 0,-34.334 -23.604,0 0,-17.049 c 18.256,0 22.799,-7.192 26.555,-17.285 l 14.215,0 z" /><path
           style="fill:#d68314;fill-opacity:1;stroke:#000000;stroke-opacity:1"
           d="m 258.90698,284.48837 c -56.898,0 -103,46.135 -103,103 0,56.865 46.102,103 103,103 56.898,0 103,-46.135 103,-103 0,-56.865 -46.102,-103 -103,-103 z m 0,188.834 c -47.326,0 -85.833,-38.508 -85.833,-85.834 0,-47.326 38.508,-85.834 85.833,-85.834 47.326,0 85.834,38.508 85.834,85.834 0,47.326 -38.508,85.834 -85.834,85.834 z"
           id="path4143"
           inkscape:connector-curvature="0"
           sodipodi:nodetypes="ssssssssss" /></g></g></g></svg>