<?xml version="1.0" encoding="UTF-8" standalone="no"?>
<svg
   xmlns:dc="http://purl.org/dc/elements/1.1/"
   xmlns:cc="http://creativecommons.org/ns#"
   xmlns:rdf="http://www.w3.org/1999/02/22-rdf-syntax-ns#"
   xmlns:svg="http://www.w3.org/2000/svg"
   xmlns="http://www.w3.org/2000/svg"
   xmlns:xlink="http://www.w3.org/1999/xlink"
   xmlns:sodipodi="http://sodipodi.sourceforge.net/DTD/sodipodi-0.dtd"
   xmlns:inkscape="http://www.inkscape.org/namespaces/inkscape"
   height="60px"
   version="1.1"
   viewBox="0 0 60 60"
   width="60px"
   id="svg2"
   inkscape:version="0.91 r13725"
   sodipodi:docname="nuc_it.svg">
  <metadata
     id="metadata17">
    <rdf:RDF>
      <cc:Work
         rdf:about="">
        <dc:format>image/svg+xml</dc:format>
        <dc:type
           rdf:resource="http://purl.org/dc/dcmitype/StillImage" />
      </cc:Work>
    </rdf:RDF>
  </metadata>
  <sodipodi:namedview
     pagecolor="#ffffff"
     bordercolor="#666666"
     borderopacity="1"
     objecttolerance="10"
     gridtolerance="10"
     guidetolerance="10"
     inkscape:pageopacity="0"
     inkscape:pageshadow="2"
     inkscape:window-width="1496"
     inkscape:window-height="1098"
     id="namedview15"
     showgrid="false"
     inkscape:zoom="12.53"
     inkscape:cx="28.660162"
     inkscape:cy="27.506874"
     inkscape:window-x="0"
     inkscape:window-y="0"
     inkscape:window-maximized="0"
     inkscape:current-layer="svg2" />
  <title
     id="title4" />
  <desc
     id="desc6" />
  <defs
     id="defs8">
    <linearGradient
       inkscape:collect="always"
       id="linearGradient4239">
      <stop
         style="stop-color:#463636;stop-opacity:1"
         offset="0"
         id="stop4241" />
      <stop
         style="stop-color:#ac9393;stop-opacity:1"
         offset="1"
         id="stop4243" />
    </linearGradient>
    <linearGradient
       inkscape:collect="always"
       id="linearGradient4231">
      <stop
         style="stop-color:#291e1e;stop-opacity:1"
         offset="0"
         id="stop4233" />
      <stop
         style="stop-color:#917c6f;stop-opacity:1"
         offset="1"
         id="stop4235" />
    </linearGradient>
    <linearGradient
       inkscape:collect="always"
       id="linearGradient4191">
      <stop
         style="stop-color:#00cbff;stop-opacity:1;"
         offset="0"
         id="stop4193" />
      <stop
         style="stop-color:#00cbff;stop-opacity:0;"
         offset="1"
         id="stop4195" />
    </linearGradient>
    <linearGradient
       inkscape:collect="always"
       xlink:href="#linearGradient4191"
       id="linearGradient4197"
       x1="36.300541"
       y1="47.26614"
       x2="46.016897"
       y2="42.498489"
       gradientUnits="userSpaceOnUse" />
    <linearGradient
       inkscape:collect="always"
       xlink:href="#linearGradient4231"
       id="linearGradient4237"
       x1="29.803391"
       y1="4.8178773"
       x2="29.711685"
       y2="19.261059"
       gradientUnits="userSpaceOnUse" />
    <linearGradient
       inkscape:collect="always"
       xlink:href="#linearGradient4239"
       id="linearGradient4245"
       x1="29.987232"
       y1="25.181906"
       x2="29.871094"
       y2="38.432949"
       gradientUnits="userSpaceOnUse" />
  </defs>
  <path
     style="fill:url(#linearGradient4237);fill-rule:evenodd;stroke:none;stroke-width:1px;stroke-linecap:butt;stroke-linejoin:miter;stroke-opacity:1;fill-opacity:1"
     d="m 10.958477,11.305847 1.925757,-2.0174602 2.430123,0.1375541 2.659379,-2.6593794 3.713961,-0.6877705 4.034921,-3.7139608 4.401731,-1.0545815 4.676839,1.3296897 2.521826,2.2925684 6.144083,2.7510821 1.467244,2.6135281 3.530555,0.550216 0.596068,4.310029 -3.34715,1.650649 -9.537084,2.063312 -12.288167,0.0917 -6.740151,-1.237986 -1.742352,-1.971609 -3.897367,-0.275109 z"
     id="path4229"
     inkscape:connector-curvature="0" />
  <path
     style="opacity:1;fill:url(#linearGradient4197);fill-opacity:1;stroke:none;stroke-width:0;stroke-linecap:round;stroke-linejoin:miter;stroke-miterlimit:4;stroke-dasharray:none;stroke-opacity:1"
     id="path3387"
     sodipodi:type="arc"
     sodipodi:cx="29.963789"
     sodipodi:cy="42.498489"
     sodipodi:rx="16.053108"
     sodipodi:ry="16.053108"
     sodipodi:start="0"
     sodipodi:end="6.2814295"
     sodipodi:open="true"
     d="M 46.016897,42.498489 A 16.053108,16.053108 0 0 1 29.970836,58.551596 16.053108,16.053108 0 0 1 13.910687,42.512582 16.053108,16.053108 0 0 1 29.942649,26.445395 16.053108,16.053108 0 0 1 46.016872,42.470303" />
  <path
     style="fill:#00ff00;fill-rule:evenodd;stroke:none;stroke-width:1px;stroke-linecap:butt;stroke-linejoin:miter;stroke-opacity:1"
     d="m 14.787575,39.992188 5.015886,0.854558 0.817404,0.891713 0.07431,0.928868 2.656562,3.473966 -0.947445,1.281837 -1.467611,-0.09289 -1.504766,1.523344 -1.764849,3.028109 -2.768026,-5.294547 -0.408702,-3.734048 z"
     id="path3380"
     inkscape:connector-curvature="0" />
  <path
     style="fill:#00ff00;fill-rule:evenodd;stroke:none;stroke-width:1px;stroke-linecap:butt;stroke-linejoin:miter;stroke-opacity:1"
     d="m 30.485441,58.0308 -1.61623,-2.545097 1.318992,-1.356147 0.780249,-2.563675 -0.222928,-1.634808 3.195305,-0.687362 2.693716,0.743094 2.545098,-0.27866 0.464434,1.318992 -0.111464,1.597653 1.207528,1.597652 -5.684671,3.139574 z"
     id="path3378"
     inkscape:connector-curvature="0" />
  <path
     style="fill:#00ff00;fill-rule:evenodd;stroke:none;stroke-width:1px;stroke-linecap:butt;stroke-linejoin:miter;stroke-opacity:1"
     d="m 37.953538,43.744814 3.065263,-2.675139 1.579075,-2.693717 2.303593,-0.928868 1.058909,3.622585 -0.222928,3.975554 -1.950623,0.260083 -3.678316,-0.650208 z"
     id="path3376"
     inkscape:connector-curvature="0" />
  <g
     style="fill:#1b1a19;fill-rule:evenodd;stroke:none;stroke-width:1"
     transform="translate(10,0)"
     id="Fill-178-+-Fill-179-+-Fill-180">
    <path
       inkscape:connector-curvature="0"
       id="Fill-178"
       d="m 31.03,29.125 c -0.427,-0.351 -1.055,-0.29 -1.408,0.136 -0.352,0.426 -0.291,1.055 0.135,1.407 1.829,1.508 3.243,3.391 4.19,5.487 -0.129,-0.006 -0.262,0.013 -0.391,0.061 -0.5,0.186 -2.996,1.205 -3.064,2.988 -0.025,0.639 -1.673,1.734 -2.557,2.322 l -0.202,0.134 c -1.404,0.936 -1.784,2.538 -1.33,3.486 0.329,0.685 1.041,0.988 1.767,0.76 1.255,-0.398 2.86,-0.596 3.599,0.037 0.701,0.602 1.549,0.784 2.32,0.784 0.208,0 0.408,-0.016 0.601,-0.038 -0.634,2.17 -1.738,4.134 -3.194,5.787 l -0.078,-0.074 c -0.03,-0.018 -0.752,-0.481 -0.625,-1.116 0.498,-2.492 -0.088,-3.168 -0.572,-3.46 -0.323,-0.192 -0.997,-0.409 -1.897,0.323 -0.577,0.472 -1.481,0.273 -2.903,-0.106 -0.292,-0.078 -0.586,-0.157 -0.881,-0.228 -1.66,-0.389 -3.995,0.1 -4.893,1.035 -0.395,0.411 -0.543,0.93 -0.405,1.424 0.113,0.407 0.608,2.471 -0.715,3.245 -0.618,0.362 -0.995,0.911 -1.09,1.587 -0.114,0.817 0.233,1.686 0.663,2.419 -3.449,-0.449 -6.541,-2.043 -8.87,-4.404 0.615,-1.926 1.564,-3.805 2.073,-4.093 1.515,0.248 2.963,-0.84 3.445,-2.025 0.373,-0.913 0.126,-1.819 -0.627,-2.309 -0.888,-0.578 -1.755,-1.961 -1.755,-2.435 0,-1.358 -0.618,-2.264 -2.005,-2.941 -0.93,-0.454 -3.513,-0.803 -4.951,-0.969 0.822,-2.959 2.509,-5.634 4.932,-7.647 0.425,-0.353 0.483,-0.983 0.13,-1.408 C 10.12,28.869 9.491,28.81 9.064,29.163 5.104,32.452 2.833,37.288 2.833,42.43 c 0,9.505 7.733,17.237 17.237,17.237 9.505,0 17.237,-7.732 17.237,-17.237 0,-5.166 -2.288,-10.016 -6.277,-13.305 l 0,0 z M 4.997,40.315 c 1.716,0.195 3.926,0.527 4.487,0.8 0.822,0.402 0.882,0.7 0.882,1.144 0,1.309 1.301,3.147 2.521,4.014 -0.061,0.13 -0.202,0.331 -0.434,0.508 C 12.168,47 11.85,47.098 11.608,47.051 9.853,46.709 8.537,49.16 7.728,51.329 5.915,48.822 4.833,45.753 4.833,42.43 c 0,-0.715 0.067,-1.418 0.164,-2.115 l 0,0 z m 14.541,14.93 c 1.874,-1.097 2.129,-3.301 1.725,-5.13 0.505,-0.271 1.803,-0.591 2.817,-0.353 0.275,0.065 0.551,0.139 0.824,0.213 1.312,0.352 2.774,0.742 4.05,0.129 -0.023,0.223 -0.062,0.488 -0.122,0.79 -0.28,1.398 0.542,2.46 1.239,3.003 -2.542,2.22 -5.82,3.604 -9.42,3.741 -0.591,-0.667 -1.304,-1.749 -1.233,-2.254 0.005,-0.04 0.01,-0.075 0.12,-0.139 l 0,0 z m 15.6,-10.673 c -0.585,0.165 -1.54,0.306 -2.068,-0.146 -1.319,-1.13 -3.261,-0.981 -4.671,-0.655 0.096,-0.151 0.238,-0.31 0.443,-0.447 l 0.199,-0.133 c 1.587,-1.054 3.385,-2.25 3.448,-3.905 0.049,-0.258 0.873,-0.86 1.766,-1.196 0.132,-0.05 0.246,-0.125 0.341,-0.217 0.456,1.458 0.711,2.988 0.711,4.557 0,0.729 -0.069,1.44 -0.169,2.142 l 0,0 z" />
  </g>
  <g
     style="fill:#1b1a19;fill-rule:evenodd;stroke:none;stroke-width:1"
     transform="translate(9.8184318,0.1102885)"
     id="g3357">
    <path
       inkscape:connector-curvature="0"
       id="path3359"
       d="M 38.296,9.339 C 37.383,8.828 36.357,8.686 35.375,8.891 35.1,7.822 34.41,6.849 33.346,6.104 32.091,5.227 30.515,4.764 28.912,4.708 27.044,1.798 23.747,0 20.135,0 16.523,0 13.227,1.797 11.358,4.707 10.111,4.751 8.874,5.038 7.785,5.591 6.573,6.207 5.689,7.068 5.196,8.079 4.131,7.776 2.992,7.895 1.985,8.453 c -1.426,0.789 -2.312,2.314 -2.312,3.98 0,1.706 0.918,3.246 2.394,4.02 1.092,0.572 2.309,0.654 3.413,0.256 0.674,1.045 1.769,1.847 3.225,2.348 1.047,0.36 2.238,0.535 3.403,0.535 0.602,0 1.185,-0.063 1.749,-0.155 0.361,0.359 0.699,0.63 0.971,0.847 1.038699,0.498361 1.902507,0.110052 2.355,-0.452 0.799,0.359 1.689,0.563 2.629,0.592 l 0.223,0.004 c 1.038,0 2.054,-0.227 2.98,-0.637 0.954199,0.733796 2.357,0.460179 2.357,0.460179 0.247,-0.212 0.524,-0.524179 0.834,-0.834179 l 0.009,-0.014 c 0.634,0.118 1.3,0.194 1.988,0.194 0.836,0 1.685,-0.091 2.483,-0.278 1.519,-0.356 2.743,-1.028 3.596,-1.963 1.149,0.59 2.494,0.637 3.703,0.085 1.611,-0.733 2.611,-2.315 2.611,-4.129 0,-1.659 -0.881,-3.181 -2.3,-3.973 z m -1.139,6.282 c -0.829,0.377 -1.746,0.237 -2.451,-0.377 -0.223,-0.195 -0.524,-0.284 -0.815,-0.233 -0.294,0.048 -0.551,0.222 -0.702,0.477 -0.675,1.141 -1.982,1.655 -2.96,1.884 -2.063,0.485 -4.366,0.116 -5.32,-0.502 l -0.08,-0.032 -0.188,-0.075 -0.182,-0.038 -0.189,0.004 -0.187,0.033 -0.171,0.073 -0.169,0.108 -0.074,0.047 c -0.985,0.955 -2.356,1.498 -3.796,1.435 -1.299,-0.039 -2.447,-0.533 -3.231,-1.391 L 16.549,16.967 16.385,16.846 16.214,16.774 16.028,16.729 15.84,16.726 15.653,16.753 15.468,16.827 15.36,16.87 C 14.21,17.614 11.522,17.911 9.356,17.165 8.452,16.854 7.288,16.231 6.875,15.035 6.773,14.739 6.538,14.509 6.241,14.411 5.943,14.313 5.618,14.361 5.361,14.539 4.648,15.031 3.764,15.084 2.996,14.682 2.167,14.248 1.673,13.407 1.673,12.433 c 0,-0.954 0.479,-1.787 1.281,-2.23 0.741,-0.409 1.584,-0.384 2.312,0.073 l 0.002,10e-4 c 0.52,0.327 0.899,0.848 1.067,1.464 0.121,0.446 0.525,0.738 0.965,0.738 L 7.563,12.443 C 8.096,12.298 8.41,11.748 8.265,11.216 8.034,10.369 7.576,9.621 6.947,9.05 7.235,8.391 7.837,7.808 8.69,7.374 10.463,6.473 12.845,6.465 14.617,7.354 15.113,7.602 15.712,7.4 15.959,6.908 16.207,6.414 16.007,5.813 15.514,5.566 14.938,5.278 14.321,5.062 13.683,4.916 15.243,3.096 17.588,2 20.135,2 c 2.551,0 4.902,1.101 6.462,2.927 -0.642,0.146 -1.268,0.351 -1.849,0.643 -0.494,0.248 -0.693,0.85 -0.445,1.343 0.249,0.494 0.85,0.692 1.343,0.444 0.859,-0.432 1.781,-0.635 2.678,-0.665 l 0.045,0.006 0.03,-0.003 c 1.469,-0.033 2.865,0.395 3.801,1.049 0.587,0.41 1.25,1.078 1.312,2.025 -0.488,0.396 -0.891,0.896 -1.181,1.47 -0.249,0.493 -0.051,1.095 0.442,1.344 0.144,0.073 0.298,0.107 0.45,0.107 0.365,0 0.717,-0.201 0.893,-0.548 0.21,-0.416 0.522,-0.76 0.903,-0.995 0.729,-0.45 1.569,-0.471 2.302,-0.062 0.798,0.445 1.275,1.278 1.275,2.227 0,1.219 -0.744,1.993 -1.439,2.309 z"
       sodipodi:nodetypes="ccccsccccscccscccccccccscccscccccccccccccccccccccccccccccccsccccccccccsccscccccccccccscccscc" />
  </g>
  <path
     style="fill:url(#linearGradient4245);fill-rule:evenodd;stroke:#000000;stroke-width:0.5;stroke-linecap:butt;stroke-linejoin:miter;stroke-opacity:1;stroke-miterlimit:4;stroke-dasharray:none;fill-opacity:1"
     d="m 24.500526,37.392219 5.257623,0.946372 6.309149,-1.156677 -1.68244,-2.628812 -0.736067,-5.678233 1.682439,-0.946373 1.26183,-2.523659 -1.68244,-2.208202 -1.472134,-0.84122 0.210305,-2.628811 -2.10305,-0.736068 -3.995794,0 -1.997897,0.525763 1.577288,3.154574 -1.892745,0.525762 -2.103049,2.523659 1.051524,1.997897 1.787592,0.736068 -0.42061,4.837013 z"
     id="path4199"
     inkscape:connector-curvature="0" />
  <g
     id="g3369"
     transform="translate(-100.46516,0.83072729)">
    <g
       style="fill:#1b1a19;fill-rule:evenodd;stroke:none;stroke-width:1"
       transform="translate(110.33725,-0.72408325)"
       id="g3363">
      <path
         sodipodi:nodetypes="cccscccssssccccccsccccccccccccscccccccssscccscccc"
         inkscape:connector-curvature="0"
         id="path3365"
         d="m 14.828,20.284 c 0.575,0.461 0.866,0.694 0.976,1.451 -0.483,0.048 -0.96,0.188 -1.405,0.426 -1.235,0.662 -1.973,1.895 -1.973,3.296 0,1.369 0.712,2.588 1.905,3.262 0.299,0.169 0.614,0.291 0.934,0.372 -0.012,0.152 -0.026,0.309 -0.038,0.458 -0.24,2.928 -0.43,5.24 -1.934,6.744 -0.391,0.391 -0.391,1.023 0,1.414 C 13.488,37.902 13.744,38 14,38 c 0.256,0 0.512,-0.098 0.707,-0.293 2.023,-2.023 2.25,-4.79 2.513,-7.994 0.018,-0.225 0.039,-0.459 0.058,-0.689 0.282,-0.09 0.558,-0.207 0.821,-0.366 0.473,-0.285 0.625,-0.9 0.34,-1.373 -0.286,-0.472 -0.901,-0.627 -1.373,-0.34 -0.556,0.334 -1.195,0.346 -1.752,0.032 -0.556,-0.314 -0.888,-0.882 -0.888,-1.52 0,-0.652 0.343,-1.226 0.918,-1.533 0.581,-0.31 1.251,-0.281 1.793,0.08 0.459,0.306 1.081,0.183 1.386,-0.279 0.306,-0.46 0.181,-1.081 -0.279,-1.387 -0.132,-0.088 -0.269,-0.164 -0.409,-0.234 -0.740543,-2.890296 -0.253477,-1.764778 1.977,-1.68 l 0.223,0.004 c 3.125695,-0.466137 2.526622,-0.785906 2.396,1.679 -0.139,0.068 -0.275,0.144 -0.406,0.231 -0.46,0.306 -0.585,0.927 -0.278,1.387 0.306,0.462 0.927,0.585 1.386,0.279 0.542,-0.362 1.211,-0.391 1.792,-0.08 0.575,0.307 0.918,0.881 0.918,1.533 0,0.638 -0.332,1.206 -0.887,1.52 -0.56,0.314 -1.199,0.302 -1.753,-0.032 -0.475,-0.287 -1.088,-0.132 -1.373,0.34 -0.285,0.474 -0.133,1.088 0.34,1.373 0.176,0.106 0.358,0.192 0.543,0.267 0.023,0.264 0.046,0.531 0.067,0.788 0.262,3.204 0.489,5.971 2.513,7.994 C 25.488,37.902 25.744,38 26,38 c 0.256,0 0.512,-0.098 0.707,-0.293 0.391,-0.391 0.391,-1.023 0,-1.414 -1.504,-1.504 -1.694,-3.816 -1.934,-6.744 -0.01,-0.132 -0.023,-0.272 -0.034,-0.406 0.413,-0.072 0.818,-0.209 1.2,-0.424 1.192,-0.674 1.904,-1.893 1.904,-3.262 0,-1.401 -0.738,-2.634 -1.973,-3.296 -0.449,-0.241 -0.931,-0.382 -1.419,-0.429 0.089,-0.834 0.343,-1.058 0.921,-1.554 -1.771657,-1.554404 -10.101364,-1.533454 -10.544,0.106 z" />
      <path
         inkscape:connector-curvature="0"
         id="path3367"
         d="m 20,39 c 0.552,0 1,-0.447 1,-1 l 0,-7 c 0,-0.553 -0.448,-1 -1,-1 -0.552,0 -1,0.447 -1,1 l 0,7 c 0,0.553 0.448,1 1,1" />
    </g>
  </g>
</svg>
