<?xml version="1.0" encoding="UTF-8" standalone="no"?>
<!-- License Agreement at http://iconmonstr.com/license/ -->

<svg
   xmlns:dc="http://purl.org/dc/elements/1.1/"
   xmlns:cc="http://creativecommons.org/ns#"
   xmlns:rdf="http://www.w3.org/1999/02/22-rdf-syntax-ns#"
   xmlns:svg="http://www.w3.org/2000/svg"
   xmlns="http://www.w3.org/2000/svg"
   xmlns:sodipodi="http://sodipodi.sourceforge.net/DTD/sodipodi-0.dtd"
   xmlns:inkscape="http://www.inkscape.org/namespaces/inkscape"
   version="1.1"
   x="0px"
   y="0px"
   width="512px"
   height="512px"
   viewBox="0 0 512 512"
   enable-background="new 0 0 512 512"
   xml:space="preserve"
   id="svg2"
   inkscape:version="0.48.5 r10040"
   sodipodi:docname="pause-3-icon.svg"><metadata
     id="metadata9"><rdf:RDF><cc:Work
         rdf:about=""><dc:format>image/svg+xml</dc:format><dc:type
           rdf:resource="http://purl.org/dc/dcmitype/StillImage" /><dc:title></dc:title></cc:Work></rdf:RDF></metadata><defs
     id="defs7" /><sodipodi:namedview
     pagecolor="#ffffff"
     bordercolor="#666666"
     borderopacity="1"
     objecttolerance="10"
     gridtolerance="10"
     guidetolerance="10"
     inkscape:pageopacity="0"
     inkscape:pageshadow="2"
     inkscape:window-width="1510"
     inkscape:window-height="1209"
     id="namedview5"
     showgrid="false"
     inkscape:zoom="0.4609375"
     inkscape:cx="-128"
     inkscape:cy="256"
     inkscape:window-x="0"
     inkscape:window-y="0"
     inkscape:window-maximized="0"
     inkscape:current-layer="svg2" /><path
     id="pause-3-icon"
     d="M256,92.481c44.433,0,86.18,17.068,117.553,48.064C404.794,171.411,422,212.413,422,255.999  s-17.206,84.588-48.448,115.455c-31.372,30.994-73.12,48.064-117.552,48.064s-86.179-17.07-117.552-48.064  C107.206,340.587,90,299.585,90,255.999s17.206-84.588,48.448-115.453C169.821,109.55,211.568,92.481,256,92.481 M256,52.481  c-113.771,0-206,91.117-206,203.518c0,112.398,92.229,203.52,206,203.52c113.772,0,206-91.121,206-203.52  C462,143.599,369.772,52.481,256,52.481L256,52.481z M240.258,346h-52.428V166h52.428V346z M326.17,346h-52.428V166h52.428V346z"
     style="fill:#800000;fill-opacity:1;opacity:0.10000000000000001" /></svg>