<?xml version="1.0" encoding="UTF-8" standalone="no"?>
<svg
   xmlns:dc="http://purl.org/dc/elements/1.1/"
   xmlns:cc="http://creativecommons.org/ns#"
   xmlns:rdf="http://www.w3.org/1999/02/22-rdf-syntax-ns#"
   xmlns:svg="http://www.w3.org/2000/svg"
   xmlns="http://www.w3.org/2000/svg"
   xmlns:xlink="http://www.w3.org/1999/xlink"
   xmlns:sodipodi="http://sodipodi.sourceforge.net/DTD/sodipodi-0.dtd"
   xmlns:inkscape="http://www.inkscape.org/namespaces/inkscape"
   id="svg-source"
   height="0"
   version="1.1"
   style="position:absolute; margin-left: -100%"
   inkscape:version="0.91 r13725"
   sodipodi:docname="tablet.svg"
   inkscape:export-filename="/Users/williamdevore/Documents/Development/GitReposes/Ranger-MoonLander/BookAssets/tablet.png"
   inkscape:export-xdpi="1036.8851"
   inkscape:export-ydpi="1036.8851">
  <metadata
     id="metadata10">
    <rdf:RDF>
      <cc:Work
         rdf:about="">
        <dc:format>image/svg+xml</dc:format>
        <dc:type
           rdf:resource="http://purl.org/dc/dcmitype/StillImage" />
        <dc:title></dc:title>
      </cc:Work>
    </rdf:RDF>
  </metadata>
  <defs
     id="defs8">
    <linearGradient
       inkscape:collect="always"
       id="linearGradient4173">
      <stop
         style="stop-color:#573b76;stop-opacity:1"
         offset="0"
         id="stop4175" />
      <stop
         style="stop-color:#ff3b6c;stop-opacity:1"
         offset="1"
         id="stop4177" />
    </linearGradient>
    <linearGradient
       inkscape:collect="always"
       xlink:href="#linearGradient4173"
       id="linearGradient4179"
       x1="20.608025"
       y1="50.459004"
       x2="80.179625"
       y2="50.459004"
       gradientUnits="userSpaceOnUse" />
  </defs>
  <sodipodi:namedview
     pagecolor="#ffffff"
     bordercolor="#666666"
     borderopacity="1"
     objecttolerance="10"
     gridtolerance="10"
     guidetolerance="10"
     inkscape:pageopacity="0"
     inkscape:pageshadow="2"
     inkscape:window-width="1951"
     inkscape:window-height="1309"
     id="namedview6"
     showgrid="false"
     inkscape:zoom="7.14"
     inkscape:cx="42.049072"
     inkscape:cy="51.537805"
     inkscape:window-x="215"
     inkscape:window-y="0"
     inkscape:window-maximized="0"
     inkscape:current-layer="svg-source" />
  <path
     inkscape:connector-curvature="0"
     id="path4"
     d="m 6.3068061,23.71632 0,52.581707 c 0,3.82966 2.6255846,6.954277 5.8485249,6.954277 l 77.211635,0 c 3.225719,0 5.845747,-3.124617 5.845747,-6.954277 l 0,-52.579037 c 0,-3.835001 -2.620028,-6.954277 -5.845747,-6.954277 l -77.211635,0 c -3.2229403,0 -5.8485249,3.119276 -5.8485249,6.951607 z M 89.369745,19.830577 c 1.416982,0 2.656147,1.818688 2.656147,3.885743 l 0,52.581707 c 0,2.067055 -1.239165,3.888413 -2.656147,3.888413 l -77.214414,0 c -1.416983,0 -2.6589258,-1.821358 -2.6589258,-3.888413 l 0,-52.579037 c 0,-2.067054 1.2419428,-3.885742 2.6589258,-3.885742 l 77.214414,0 z"
     sodipodi:nodetypes="ssssssssscssssssscc" />
  <path
     d="m 86.181861,54.79599 c 2.65337,0 4.81219,-2.07774 4.81219,-4.63085 0,-2.55577 -2.15882,-4.63084 -4.81219,-4.63084 -6.288428,0.445556 -5.805573,9.254256 0,9.26169 z m 2.2644,-4.63085 c 0,1.20178 -1.0169,2.17922 -2.26162,2.17922 -1.25028,0 -2.26717,-0.97744 -2.26717,-2.17922 0,-1.20177 1.01689,-2.17922 2.26717,-2.17922 1.24472,0 2.26162,0.97745 2.26162,2.17922 z"
     id="path4139"
     inkscape:connector-curvature="0"
     sodipodi:nodetypes="csccsssss"
     style="fill:#ddff55;stroke:#000000;stroke-opacity:1;stroke-width:0.6;stroke-miterlimit:4;stroke-dasharray:none" />
  <path
     inkscape:connector-curvature="0"
     id="path4141"
     d="m 20.608025,24.594117 0,51.727114 c 0,0.84391 0.71405,1.53293 1.5948,1.53293 l 56.382,0 c 0.88075,0 1.5948,-0.68902 1.5948,-1.53293 l 0,-51.724444 c 0,-0.846584 -0.71405,-1.532932 -1.5948,-1.532932 l -56.382,0 c -0.88075,-0.0027 -1.5948,0.683677 -1.5948,1.530262 z m 56.382,1.535603 0,48.655901 -53.1924,0 0,-48.658572 53.1924,0 z"
     sodipodi:nodetypes="ssssssscscccccc"
     style="fill:url(#linearGradient4179);stroke:none;stroke-opacity:1;stroke-width:0.4;stroke-miterlimit:4;stroke-dasharray:none;fill-opacity:1" />
  <path
     inkscape:connector-curvature="0"
     id="path4143"
     d="m 17.325694,50.458963 c 0,-1.354 -1.14748,-2.4543 -2.55613,-2.4543 -1.40864,0 -2.55334,1.1003 -2.55334,2.4543 0,1.354 1.14748,2.45429 2.55334,2.45429 1.40865,0 2.55613,-1.10029 2.55613,-2.45429 z m -3.51745,0 c 0,-0.51009 0.43065,-0.92404 0.95855,-0.92404 0.53067,0 0.9641,0.41395 0.9641,0.92404 0,0.50741 -0.43065,0.92403 -0.96133,0.92403 -0.53067,0 -0.96132,-0.41662 -0.96132,-0.92403 z"
     sodipodi:nodetypes="ssssssssss"
     style="fill:#ff7f2a" />
  <text
     xml:space="preserve"
     style="font-style:normal;font-weight:normal;font-size:11.60052109px;line-height:125%;font-family:Sans;letter-spacing:0px;word-spacing:0px;fill:#0069ff;fill-opacity:1;stroke:#000000;stroke-width:0.3;stroke-linecap:butt;stroke-linejoin:miter;stroke-opacity:1;stroke-miterlimit:4;stroke-dasharray:none"
     x="29.818066"
     y="54.436726"
     id="text4145"
     sodipodi:linespacing="125%"><tspan
       sodipodi:role="line"
       id="tspan4147"
       x="29.818066"
       y="54.436726">Ranger</tspan></text>
</svg>
