<?xml version="1.0" encoding="UTF-8" standalone="no"?>
<!-- Generated by IcoMoon.io -->

<svg
   xmlns:dc="http://purl.org/dc/elements/1.1/"
   xmlns:cc="http://creativecommons.org/ns#"
   xmlns:rdf="http://www.w3.org/1999/02/22-rdf-syntax-ns#"
   xmlns:svg="http://www.w3.org/2000/svg"
   xmlns="http://www.w3.org/2000/svg"
   xmlns:sodipodi="http://sodipodi.sourceforge.net/DTD/sodipodi-0.dtd"
   xmlns:inkscape="http://www.inkscape.org/namespaces/inkscape"
   version="1.1"
   width="32"
   height="32"
   viewBox="0 0 32 32"
   id="svg2"
   inkscape:version="0.48.5 r10040"
   sodipodi:docname="lockopen.svg">
  <metadata
     id="metadata10">
    <rdf:RDF>
      <cc:Work
         rdf:about="">
        <dc:format>image/svg+xml</dc:format>
        <dc:type
           rdf:resource="http://purl.org/dc/dcmitype/StillImage" />
        <dc:title></dc:title>
      </cc:Work>
    </rdf:RDF>
  </metadata>
  <defs
     id="defs8" />
  <sodipodi:namedview
     pagecolor="#ffffff"
     bordercolor="#666666"
     borderopacity="1"
     objecttolerance="10"
     gridtolerance="10"
     guidetolerance="10"
     inkscape:pageopacity="0"
     inkscape:pageshadow="2"
     inkscape:window-width="1474"
     inkscape:window-height="1177"
     id="namedview6"
     showgrid="false"
     inkscape:zoom="26.460125"
     inkscape:cx="15.42532"
     inkscape:cy="14.691681"
     inkscape:window-x="0"
     inkscape:window-y="0"
     inkscape:window-maximized="0"
     inkscape:current-layer="svg2" />
  <g
     id="g5243">
    <path
       sodipodi:nodetypes="csssscccssssc"
       style="fill:#917c6f"
       inkscape:connector-curvature="0"
       id="path4"
       d="m 31.140079,13.126433 0,-6.0000001 c 0,-3.308 -2.692,-6 -6,-6 l -4,0 c -3.308,0 -5.999999,2.692 -5.999999,6 l 0,6.0000001 m 11.999999,0 -8,0 0,-6.0000001 c 0,-1.103 0.897,-2 2,-2 l 4,0 c 1.103,0 2,0.897 2,2 z" />
    <path
       sodipodi:nodetypes="ccssssssccccssscc"
       d="m 19.441973,12.997477 -16.9999997,0 c -0.825,0 -1.50000003,0.675 -1.50000003,1.5 l 0,15 c 0,0.825 0.67500003,1.5 1.50000003,1.5 l 16.9999997,0 c 0.825,0 1.5,-0.675 1.5,-1.5 l 0,-15 c 0,-0.825 -0.675,-1.5 -1.5,-1.5 z m -6.5,14 -3.9999993,0 0.87,-4.35 c -0.525,-0.36 -0.87,-0.965 -0.87,-1.65 0,-1.105 0.895,-2 1.9999993,-2 1.105,0 2,0.895 2,2 0,0.685 -0.345,1.29 -0.87,1.65 z"
       id="path2987"
       inkscape:connector-curvature="0"
       style="fill:#ffdd55;fill-opacity:1" />
  </g>
</svg>
